<?xml version="1.0" encoding="UTF-8" standalone="no"?>
<svg
   xmlns:dc="http://purl.org/dc/elements/1.1/"
   xmlns:cc="http://creativecommons.org/ns#"
   xmlns:rdf="http://www.w3.org/1999/02/22-rdf-syntax-ns#"
   xmlns:svg="http://www.w3.org/2000/svg"
   xmlns="http://www.w3.org/2000/svg"
   viewBox="0 0 256 256"
   height="256"
   width="256"
   xml:space="preserve"
   id="svg3713"
   version="1.1"><metadata
     id="metadata3719"><rdf:RDF><cc:Work
         rdf:about=""><dc:format>image/svg+xml</dc:format><dc:type
           rdf:resource="http://purl.org/dc/dcmitype/StillImage" /><dc:title></dc:title></cc:Work></rdf:RDF></metadata><defs
     id="defs3717"><clipPath
       id="clipPath3729"
       clipPathUnits="userSpaceOnUse"><path
         id="path3727"
         d="M 0,612 H 792 V 0 H 0 Z" /></clipPath><clipPath
       id="clipPath3797"
       clipPathUnits="userSpaceOnUse"><path
         id="path3795"
         d="M 0,612 H 792 V 0 H 0 Z" /></clipPath><clipPath
       id="clipPath4371"
       clipPathUnits="userSpaceOnUse"><path
         id="path4369"
         d="M 160.725,189.76 H 341.837 V 329.711 H 160.725 Z" /></clipPath><clipPath
       id="clipPath4435"
       clipPathUnits="userSpaceOnUse"><path
         id="path4433"
         d="M 0,612 H 792 V 0 H 0 Z" /></clipPath><clipPath
       id="clipPath4463"
       clipPathUnits="userSpaceOnUse"><path
         id="path4461"
         d="m 435.21,408.542 11.669,-43.997 54.596,14.48 -11.667,43.996 z" /></clipPath><clipPath
       id="clipPath4499"
       clipPathUnits="userSpaceOnUse"><path
         id="path4497"
         d="M 0,612 H 792 V 0 H 0 Z" /></clipPath></defs><g
     transform="matrix(1.3333333,0,0,-1.3333333,0,256)"
     id="g3721"><g
       transform="matrix(1.8687763,0,0,1.8687763,-184.31645,-52.432806)"
       id="g7468"><g
         id="g7437"
         transform="translate(2.7169167e-7,-2.8344651e-5)"><g
           transform="matrix(0.43090266,0,0,0.43090266,133.72453,83.694186)"
           id="g4569"><path
             id="path4571"
             style="fill:#231f20;fill-opacity:1;fill-rule:nonzero;stroke:none"
             d="m 0,0 v 5.044 h 3.777 v 7.554 h 7.007 V 5.044 h 4.398 V 0 h -4.398 v -14.312 c 0,-1.11 0.141,-1.801 0.422,-2.075 0.282,-0.273 1.144,-0.41 2.585,-0.41 0.215,0 0.442,0.004 0.683,0.013 0.24,0.008 0.476,0.02 0.708,0.037 v -5.292 l -3.354,-0.125 c -3.347,-0.115 -5.633,0.464 -6.858,1.739 -0.795,0.812 -1.193,2.063 -1.193,3.752 L 3.777,0 Z" /></g><g
           transform="matrix(0.43090266,0,0,0.43090266,150.61346,85.910146)"
           id="g4573"><path
             id="path4575"
             style="fill:#231f20;fill-opacity:1;fill-rule:nonzero;stroke:none"
             d="m 0,0 c 1.36,-0.58 2.478,-1.467 3.353,-2.661 0.741,-1.012 1.195,-2.052 1.36,-3.121 0.165,-1.07 0.247,-2.815 0.247,-5.235 v -15.917 h -7.231 v 16.493 c 0,1.46 -0.247,2.637 -0.74,3.532 -0.64,1.261 -1.857,1.89 -3.649,1.89 -1.859,0 -3.269,-0.626 -4.231,-1.877 -0.962,-1.252 -1.443,-3.04 -1.443,-5.361 v -14.677 h -7.081 V 9.567 h 7.081 V -3.354 c 1.023,1.574 2.206,2.671 3.551,3.292 1.344,0.623 2.758,0.933 4.243,0.933 C -2.874,0.871 -1.361,0.58 0,0" /></g><g
           transform="matrix(0.43090266,0,0,0.43090266,158.66005,83.102514)"
           id="g4577"><path
             id="path4579"
             style="fill:#231f20;fill-opacity:1;fill-rule:nonzero;stroke:none"
             d="m 0,0 c -1.001,-1.032 -1.629,-2.429 -1.887,-4.192 h 12.2 C 10.185,-2.313 9.557,-0.887 8.427,0.087 7.298,1.061 5.898,1.547 4.228,1.547 2.409,1.547 1.001,1.031 0,0 m 10.594,6.117 c 1.889,-0.846 3.45,-2.181 4.68,-4.007 1.11,-1.609 1.829,-3.475 2.158,-5.598 0.191,-1.245 0.268,-3.036 0.233,-5.376 H -2.061 c 0.111,-2.717 1.055,-4.621 2.832,-5.715 1.083,-0.679 2.384,-1.019 3.906,-1.019 1.613,0 2.924,0.414 3.931,1.243 0.55,0.447 1.037,1.068 1.458,1.864 h 7.23 c -0.191,-1.608 -1.066,-3.239 -2.625,-4.896 -2.427,-2.634 -5.823,-3.95 -10.19,-3.95 -3.604,0 -6.785,1.11 -9.54,3.332 -2.755,2.222 -4.132,5.836 -4.132,10.843 0,4.691 1.243,8.29 3.73,10.793 2.487,2.503 5.716,3.756 9.686,3.756 2.356,0 4.48,-0.424 6.369,-1.27" /></g></g><g
         id="g7359"
         transform="translate(-47.509573)"><g
           transform="matrix(0.43090266,0,0,0.43090266,230.00188,100.27072)"
           id="g4545"><path
             id="path4547"
             style="fill:#231f20;fill-opacity:1;fill-rule:nonzero;stroke:none"
             d="m 0,0 h -144.062 c -9.901,0 -18,8.1 -18,18 v 33.828 c 0,9.9 8.099,18 18,18 H 0 c 9.9,0 18,-8.1 18,-18 V 18 C 18,8.1 9.9,0 0,0" /></g><g
           transform="matrix(0.43090266,0,0,0.43090266,180.49819,115.5669)"
           id="g4549"><path
             id="path4551"
             style="fill:#ffffff;fill-opacity:1;fill-rule:nonzero;stroke:none"
             d="m 0,0 c 0,-15.217 -9.8,-27.553 -21.888,-27.553 -12.088,0 -21.887,12.336 -21.887,27.553 0,15.217 9.799,27.553 21.887,27.553 C -9.8,27.553 0,15.217 0,0" /></g><g
           transform="matrix(0.43090266,0,0,0.43090266,180.49819,115.5669)"
           id="g4553"><path
             id="path4555"
             style="fill:none;stroke:#231f20;stroke-width:1;stroke-linecap:butt;stroke-linejoin:miter;stroke-miterlimit:10;stroke-dasharray:none;stroke-opacity:1"
             d="m 0,0 c 0,-15.217 -9.8,-27.553 -21.888,-27.553 -12.088,0 -21.887,12.336 -21.887,27.553 0,15.217 9.799,27.553 21.887,27.553 C -9.8,27.553 0,15.217 0,0 Z" /></g><g
           transform="matrix(0.43090266,0,0,0.43090266,176.73955,108.06864)"
           id="g4557"><path
             id="path4559"
             style="fill:#e21d25;fill-opacity:1;fill-rule:nonzero;stroke:none"
             d="m 0,0 c 3.247,4.079 4.87,9.879 4.87,17.401 0,7.492 -1.623,13.286 -4.87,17.379 -3.249,4.093 -7.637,6.14 -13.165,6.14 -5.529,0 -9.94,-2.038 -13.233,-6.117 -3.292,-4.078 -4.939,-9.879 -4.939,-17.402 0,-7.522 1.647,-13.322 4.939,-17.401 3.293,-4.079 7.704,-6.118 13.233,-6.118 5.528,0 9.916,2.039 13.165,6.118 m 8.723,-10.151 c -5.046,-5.197 -12.342,-7.795 -21.888,-7.795 -9.547,0 -16.844,2.598 -21.888,7.795 -6.767,6.374 -10.151,15.558 -10.151,27.552 0,12.236 3.384,21.419 10.151,27.553 5.044,5.196 12.341,7.795 21.888,7.795 9.546,0 16.842,-2.599 21.888,-7.795 C 15.46,38.82 18.828,29.637 18.828,17.401 18.828,5.407 15.46,-3.777 8.723,-10.151" /></g><g
           transform="matrix(0.43090266,0,0,0.43090266,189.21806,128.8035)"
           id="g4561"><path
             id="path4563"
             style="fill:#ffffff;fill-opacity:1;fill-rule:nonzero;stroke:none"
             d="M 0,0 H 45.605 V -11.239 H 13.278 v -14.71 H 41.613 V -37.058 H 13.278 V -63.875 H 0 Z" /></g><g
           transform="matrix(0.43090266,0,0,0.43090266,212.60927,128.8035)"
           id="g4565"><path
             id="path4567"
             style="fill:#ffffff;fill-opacity:1;fill-rule:nonzero;stroke:none"
             d="M 0,0 H 45.605 V -11.239 H 13.278 v -14.71 H 41.613 V -37.058 H 13.278 V -63.875 H 0 Z" /></g></g><g
         id="g7369"
         transform="translate(-44.654846)"><g
           transform="matrix(0.43090266,0,0,0.43090266,174.75167,58.343548)"
           id="g4581"><path
             id="path4583"
             style="fill:#231f20;fill-opacity:1;fill-rule:nonzero;stroke:none"
             d="M 0,0 V 0.091 L -0.09,0 Z m 0,-37.804 v 4.151 c -0.271,-1.445 -0.541,-2.798 -0.992,-4.151 z m -1.534,0 c 0,0.09 0.091,0.09 0.091,0.18 l -0.271,-0.18 z m 0.27,0.722 0.272,0.811 -2.707,-1.533 h 1.173 z m 0.362,1.353 c 0.09,0.271 0.09,0.541 0.18,0.812 l -4.872,-2.887 h 1.082 z M -6.045,-46.917 H 0 v 8.662 H -1.173 C -2.346,-41.413 -3.97,-44.3 -6.045,-46.917 M 0,-23.277 v 13.352 h -6.045 c 3.067,-3.789 5.143,-8.39 6.045,-13.352 m -0.541,-11.099 c 0.09,0.272 0,0.451 0.09,0.723 l -7.128,-4.151 h 1.173 z m -6.136,-12.541 c 0.362,0.361 0.722,0.722 0.992,1.173 l -2.075,-1.173 z m -1.262,38.978 c 0.541,-0.541 0.992,-1.083 1.443,-1.624 H 0 v 9.022 h -0.541 z m 7.578,-25.173 c 0,0.27 0.09,0.451 0.09,0.721 l -9.203,-5.413 h 1.083 z m -6.677,23.549 c -0.36,0.451 -0.812,0.902 -1.263,1.353 l -1.262,-1.353 z m 1.895,-35.369 c 0.271,0.361 0.452,0.722 0.722,1.082 l -5.323,-3.067 h 1.173 z m -2.345,-2.977 -2.437,-1.354 v -0.721 l 0.903,0.541 c 0.541,0.451 1.083,0.993 1.534,1.534 m -2.437,0.451 v -0.271 l 0.541,0.271 z m 1.354,0 -1.354,-0.722 v -0.632 l 2.527,1.354 z M -9.925,-56.48 H 0 v 9.022 h -6.496 c -1.083,-1.264 -2.166,-2.256 -3.429,-3.339 z m 5.955,13.353 c 0.181,0.36 0.361,0.631 0.541,0.992 l -6.496,-3.79 v -0.631 z m 0.903,1.624 c 0.179,0.271 0.27,0.631 0.451,0.902 l -7.309,-4.15 v -0.723 z m 0.721,1.533 c 0.09,0.271 0.271,0.632 0.361,0.903 l -7.94,-4.602 V -44.3 Z m -6.767,1.715 h -0.812 v -0.451 z m 1.895,0 h -1.083 l -1.624,-0.902 v -0.632 z m 1.985,0 h -1.173 l -3.519,-1.985 v -0.722 z m 1.894,0 h -1.082 l -5.504,-3.158 v -0.632 z m 1.625,-0.27 c 0,0.089 0.09,0.179 0.09,0.27 h -0.902 l -7.399,-4.241 v -0.722 z m 1.533,6.586 c 0,0.27 0.091,0.451 0.091,0.721 l -9.835,-5.683 v -0.632 z M 0,-30.767 v 0.722 l -9.925,-5.684 v -0.722 z m 0,1.173 v 0.722 l -9.925,-5.774 v -0.631 z m -8.391,0.813 h -1.083 l -0.451,-0.181 v -0.722 z m 1.985,0 h -1.173 l -2.346,-1.354 v -0.632 z m 1.894,0 h -1.082 l -4.331,-2.437 v -0.721 z m 1.986,0 h -1.173 l -6.226,-3.61 v -0.631 z m 1.985,0 h -1.173 l -8.211,-4.693 v -0.721 z m -9.745,-3.88 h -0.09 c -0.09,-0.271 -0.09,-0.451 -0.181,-0.722 l 0.271,0.09 z m 0,-1.083 -0.451,-0.271 -0.271,-0.811 0.722,0.36 z m 0.091,24.181 1.533,1.534 -2.616,-1.534 z m -1.264,-28.241 h 1.173 v 0.631 z m 1.173,2.887 -0.902,-0.451 c -0.09,-0.271 -0.271,-0.632 -0.361,-0.903 l 1.263,0.722 z m 0,-11.909 v 0.631 l -1.353,-0.722 h 1.082 z m 0,10.826 -1.624,-0.901 c -0.18,-0.272 -0.271,-0.632 -0.451,-0.903 h 0.09 l 1.985,1.082 z m 1.444,28.331 c -0.18,0.181 -0.271,0.361 -0.451,0.451 l -3.97,-2.345 h 1.173 z m -4.06,-30.135 c 0.089,0.18 0.18,0.271 0.27,0.451 l -0.722,-0.451 z m 0.631,-0.451 -0.542,-0.361 c -0.27,-0.361 -0.45,-0.722 -0.721,-1.083 l 2.436,1.444 z m 1.985,-7.489 v 0.722 l -3.338,-1.895 h 1.173 z m 0.723,38.797 c -0.181,0.091 -0.272,0.27 -0.452,0.361 l -5.143,-2.977 h 1.083 z M -9.925,-21.653 V -28.33 H 0 c 0,6.947 -2.526,13.443 -6.677,18.405 h -3.338 l -5.233,-5.323 c 2.435,-2.436 4.15,-5.594 4.962,-9.112 v 2.707 z m -2.346,-14.978 c 0.181,0.271 0.361,0.631 0.452,0.902 l -3.519,-2.075 h 1.173 z m 1.985,-2.346 v 0.722 l -3.97,-2.256 c -0.36,-0.451 -0.811,-0.992 -1.263,-1.443 z m 0,-5.594 v 0.632 l -5.323,-2.978 h 1.172 z m -5.323,29.684 1.534,1.533 -1.986,-1.172 c 0.181,-0.09 0.272,-0.18 0.452,-0.361 m 2.707,2.616 1.534,1.535 -5.414,-3.068 c 0.18,-0.091 0.27,-0.361 0.451,-0.451 z m 2.526,6.045 c -0.181,0.091 -0.27,0.272 -0.451,0.362 l -6.316,-3.699 h 1.173 z m -1.173,-28.962 c 0.09,0.271 0.181,0.632 0.271,0.903 l -6.045,-3.519 h 1.173 z m 1.263,-8.3 v 0.721 l -7.218,-4.15 h 1.083 z m -1.804,33.563 -5.504,-3.248 c 0.181,-0.09 0.271,-0.27 0.451,-0.36 l 6.226,3.608 z m -1.895,0 -4.511,-2.616 c 0.181,-0.09 0.36,-0.271 0.541,-0.361 l 5.053,2.977 z m 3.428,-40.872 -8.03,-4.691 c 2.888,1.083 5.685,2.707 8.03,4.691 m -0.631,45.203 c -0.18,0.09 -0.361,0.271 -0.541,0.362 l -7.308,-4.331 h 1.082 z m 0.09,-28.15 c 0.09,0.27 0.09,0.542 0.181,0.812 l -8.301,-4.872 h 1.082 z m 0.812,-8.571 v 0.631 l -9.202,-5.233 h 1.173 z M -15.97,-9.925 -19.488,-12 c 0.179,-0.09 0.451,-0.271 0.631,-0.36 l 4.06,2.435 z m -4.06,-46.555 h 9.744 v 5.232 c -2.797,-2.346 -6.135,-4.15 -9.744,-5.232 m 0,55.939 c 4.511,-1.443 8.481,-3.789 11.729,-7.037 l 7.128,7.037 z m 9.744,-56.301 h -9.925 v -0.541 h 9.925 z m 0,7.309 -9.925,-5.775 v -0.631 l 9.925,5.684 z m 0,1.083 -9.925,-5.775 v -0.631 l 9.925,5.774 z m -9.925,0.992 v -0.632 l 1.083,0.632 z m 1.896,0 -1.896,-1.083 v -0.632 l 3.068,1.715 z m 1.984,0 -3.88,-2.256 v -0.632 l 4.963,2.888 z m 1.894,0 -5.774,-3.339 v -0.631 l 6.948,3.97 z m 1.986,0 -7.76,-4.512 v -0.631 l 8.933,5.143 z m 2.165,0 h -0.271 l -9.654,-5.594 v -0.632 l 9.925,5.684 z m 0,6.226 v 0.721 l -9.925,-5.774 v -0.632 z m 0,1.172 v 0.632 l -6.767,-3.88 c -0.992,-0.812 -1.984,-1.534 -3.158,-2.075 v -0.451 z m -9.925,-4.782 c 2.888,1.534 5.323,3.79 7.038,6.587 h -7.038 z m 9.474,12.451 c 0.091,0.271 0.091,0.452 0.091,0.722 l -9.565,-5.594 v -0.541 h 0.181 z m 0.18,1.264 c 0,0.271 0.091,0.36 0.091,0.631 l -9.745,-5.684 v -0.632 z m 0.181,1.173 v 0.722 l -9.835,-5.775 v -0.632 z m -9.654,1.173 h -0.181 v -0.091 z m 1.894,0 h -1.082 c -0.361,-0.181 -0.632,-0.451 -0.993,-0.632 v -0.632 z m 1.986,0 h -1.173 l -2.888,-1.715 v -0.631 z m 1.985,0 h -1.173 l -4.873,-2.888 v -0.632 z m 1.894,0 h -1.083 l -6.857,-3.97 v -0.632 z m 1.895,0 h -1.083 l -8.752,-5.144 v -0.631 z m -7.579,18.856 -2.526,-1.533 c 0.18,-0.091 0.451,-0.181 0.631,-0.271 l 3.068,1.804 z m 5.865,4.963 c -0.181,0.09 -0.271,0.271 -0.451,0.36 l -8.481,-4.961 h 1.172 z m -8.662,-41.955 v 0.361 l -0.632,-0.361 z m 0.902,36.992 -1.713,-0.992 c 0.179,-0.09 0.451,-0.271 0.63,-0.361 l 2.166,1.353 z m -2.345,-46.555 h 0.541 c 0.27,0.089 0.632,0.18 0.902,0.27 v 0.632 z m 0.36,46.555 -0.901,-0.631 c 0.27,-0.09 0.45,-0.09 0.721,-0.18 l 1.353,0.811 z m 8.933,5.595 -0.541,0.27 -9.565,-5.503 h 1.173 z m -7.85,-41.774 v 0.541 l -1.083,-0.541 -1.533,-0.813 h 1.173 z m 0,-11.279 v 0.541 h -0.811 c -0.723,-0.18 -1.354,-0.451 -2.076,-0.541 z M -23.729,-9.925 -24,-10.104 c 0.271,-0.091 0.451,-0.181 0.722,-0.272 l 0.632,0.451 z m 2.977,-44.48 -3.429,-2.075 h 1.173 l 2.256,1.353 z M -24.181,0 h 0.813 l -0.542,0.181 z m -0.541,-46.917 h 0.541 l 0.362,0.181 c -0.271,-0.09 -0.632,-0.09 -0.903,-0.181 m 0,36.992 0.09,-0.09 0.091,0.09 z m 10.827,6.136 c -0.18,0.09 -0.361,0.27 -0.542,0.36 l -10.465,-6.134 h 1.083 z m -9.924,-53.053 h -1.083 l -0.452,-0.27 c 0.542,0.09 0.993,0.09 1.535,0.18 z m 3.067,3.519 -5.323,-3.157 h 1.083 l 4.24,2.526 z M -25.173,0.542 -26.075,0 h 1.083 l 0.541,0.361 c -0.271,0 -0.451,0.181 -0.722,0.181 m 10.376,-3.79 c -0.181,0.091 -0.451,0.27 -0.632,0.361 l -11.458,-6.676 h 1.173 z m -10.917,-53.594 h -1.173 l -0.722,-0.451 c 0.451,0 0.812,0.091 1.263,0.091 z m 4.962,4.693 -7.309,-4.331 h 1.174 l 6.135,3.608 z M -26.887,0.632 -28.061,0 h 1.174 l 1.082,0.632 z m 6.676,-22.285 v -6.677 h 9.925 c 0,4.962 -2.075,9.474 -5.323,12.811 L -28.331,-28.33 h 7.579 v 6.677 z m 4.331,18.947 c -0.181,0.09 -0.451,0.27 -0.632,0.36 l -12.27,-7.217 h 1.083 z m -11.819,-54.136 h -1.083 l -0.812,-0.451 c 0.271,0 0.451,-0.09 0.722,-0.09 0.09,0 0.36,0.09 0.451,0.09 z m 6.947,5.775 -9.203,-5.413 h 1.083 l 8.12,4.781 z m -7.669,51.699 h -0.361 L -29.955,0 h 1.083 l 1.263,0.632 z m 11.458,-2.797 c -0.18,0.09 -0.45,0.181 -0.631,0.27 l -13.173,-7.668 h 1.173 z m -13.804,-54.677 -0.631,-0.36 c 0.361,0 0.721,-0.091 1.083,-0.091 l 0.721,0.451 z m 10.015,6.947 -11.187,-6.585 h 1.172 l 10.015,5.864 z M -30.857,0.542 -31.939,0 h 1.172 l 1.173,0.632 c -0.451,0 -0.812,-0.09 -1.263,-0.09 m 12.812,-2.256 c -0.181,0.09 -0.361,0.181 -0.632,0.271 l -14.075,-8.12 h 1.173 z M -32.752,0 -31.85,0.451 C -32.391,0.361 -32.752,0 -32.752,0 m 0,-56.842 -0.27,-0.18 c 0.27,0 0.721,-0.18 0.992,-0.18 l 0.451,0.36 z m -1.173,0 c 0.09,0 0.181,-0.09 0.271,-0.09 l 0.091,0.09 z m 13.173,8.03 -13.173,-7.668 h 1.173 l 12,7.037 z m -12.181,38.887 h -0.541 l -0.451,-0.27 c 0.271,0.091 0.632,0.18 0.992,0.27 m 13.715,8.662 c -0.27,0.09 -0.451,0.181 -0.721,0.271 l -14.707,-8.571 h 1.083 z m -14.436,-45.563 c -0.271,0.09 -0.451,0.18 -0.722,0.27 l -0.632,-0.361 h 1.083 z m 12.902,-0.813 -15.067,-8.841 h 1.083 l 13.984,8.12 z m 0.271,46.827 c -0.271,0.09 -0.452,0.09 -0.722,0.181 l -15.429,-8.932 h 1.173 z m -14.436,-45.563 c -0.271,0.09 -0.451,0.09 -0.722,0.18 l -1.353,-0.722 h 1.173 z m 12.722,-1.083 -14.978,-8.662 c 0.271,-0.09 0.451,-0.09 0.722,-0.18 l 15.429,8.842 z m -15.61,9.654 h 17.053 v 0.271 l -0.181,-0.091 v 0.451 l 0.181,0.091 v 0.722 l -0.181,-0.181 v 0.451 l 0.181,0.181 v 0.632 l -0.181,-0.091 v 0.451 l 0.181,0.091 v 0.722 l -0.181,-0.181 v 0.451 l 0.181,0.181 v 0.631 l -0.181,-0.09 v 0.451 l 0.181,0.09 v 0.721 l -0.181,-0.179 v 0.451 l 0.181,0.18 v 0.631 l -0.181,-0.089 v 0.451 l 0.181,0.09 v 0.721 l -0.181,-0.18 v 0.451 l 0.181,0.18 v 0.362 h -8.03 z m 13.624,-9.654 -14.255,-8.211 c 0.271,-0.09 0.451,-0.18 0.722,-0.27 l 14.706,8.481 z m 2.346,46.917 h -1.173 l -15.518,-9.022 h 1.083 z M -36.09,-45.925 c -0.181,0.091 -0.451,0.181 -0.632,0.272 l -2.256,-1.264 h 1.173 z m 10.015,-1.533 -13.534,-7.76 c 0.18,-0.09 0.361,-0.18 0.631,-0.27 l 13.986,8.03 z m 2.256,46.917 h -1.083 l -15.609,-9.022 h 1.173 z m -4.242,-46.917 -12.721,-7.309 c 0.18,-0.089 0.542,-0.18 0.721,-0.27 l 13.174,7.579 z m -9.112,1.984 c -0.181,0.091 -0.451,0.181 -0.632,0.272 l -3.067,-1.715 h 1.083 z m 7.218,-1.984 -11.819,-6.767 c 0.18,-0.09 0.361,-0.271 0.541,-0.361 l 12.361,7.128 z m -11.819,5.774 c 3.338,-3.248 7.849,-5.233 12.902,-5.233 2.887,0 5.685,0.632 8.12,1.805 v 6.857 h -17.504 z m 16.06,41.143 h -1.173 l -15.519,-9.022 h 1.083 z m -6.225,-46.917 -10.918,-6.226 c 0.18,-0.089 0.451,-0.27 0.631,-0.361 l 11.459,6.587 z m -6.226,2.526 c -0.181,0.09 -0.451,0.271 -0.632,0.361 l -4.06,-2.346 h 1.172 z m -3.52,2.527 c -0.179,0.09 -0.179,0.27 -0.36,0.36 l -1.534,-1.533 z m 7.76,-5.053 -9.835,-5.685 c 0.181,-0.089 0.362,-0.27 0.542,-0.36 l 10.466,6.045 z m 6.226,46.917 h -1.083 l -15.609,-9.022 h 1.173 z m -16.782,-37.714 c 0.721,-1.173 1.534,-2.166 2.436,-3.158 l 3.067,3.158 z m 8.662,-9.203 -8.933,-5.143 0.542,-0.271 9.474,5.414 z m -3.339,3.067 c -0.18,0.091 -0.361,0.271 -0.541,0.362 l -5.053,-2.888 h 1.083 z m 1.353,-3.067 -7.849,-4.512 c 0.18,-0.09 0.361,-0.27 0.542,-0.36 l 8.48,4.872 z m -3.067,4.331 c -0.181,0.09 -0.271,0.36 -0.451,0.451 l -3.338,-1.985 -1.624,-1.534 z m 11.278,42.586 h -1.173 l -15.609,-9.022 h 1.173 z m -10.105,-46.917 -6.767,-3.88 c 0.181,-0.09 0.271,-0.27 0.451,-0.361 l 7.399,4.241 z m -5.594,9.654 -0.27,0.541 -0.903,-0.541 h 1.082 z m 5.232,-5.955 c -0.179,0.09 -0.27,0.271 -0.45,0.361 l -6.225,-3.519 h 1.173 z m -6.947,37.714 7.85,4.512 c -2.887,-1.083 -5.503,-2.617 -7.85,-4.512 m 10.918,-50.797 h -11.188 v -0.541 h 13.263 c -0.721,0.09 -1.353,0.361 -2.075,0.541 m -11.188,0.362 h 9.654 c -3.609,1.082 -6.857,2.886 -9.654,5.232 z m 0,9.022 V -48 l 0.902,0.542 z m 1.715,0 -1.715,-0.992 v -0.632 l 2.887,1.624 z m 1.984,0 -3.699,-2.075 v -0.722 l 4.782,2.797 z m 1.894,0 -5.593,-3.248 c 0.18,-0.091 0.27,-0.271 0.451,-0.361 l 6.316,3.609 z m -5.593,0.812 1.083,1.083 -1.083,-0.632 z m 2.166,2.255 1.624,1.535 -3.79,-2.166 v -0.722 z m 2.706,2.617 v 0.09 c -0.09,0.181 -0.271,0.181 -0.361,0.361 l -4.511,-2.616 v -0.632 z m -0.631,0.812 c -0.091,0.181 -0.272,0.271 -0.361,0.451 l -3.88,-2.256 v -0.721 z m -0.632,0.722 c -0.091,0.18 -0.27,0.27 -0.361,0.451 l -3.248,-1.895 v -0.631 z m -0.632,0.812 c -0.09,0.18 -0.18,0.271 -0.27,0.451 l -2.707,-1.534 v -0.721 z m -1.804,1.173 h -1.173 v -0.722 z m 1.263,-0.361 c -0.091,0.091 -0.091,0.27 -0.18,0.361 h -0.271 l -1.985,-1.173 v -0.632 z m -0.902,1.715 -0.271,0.541 -1.263,-0.813 v -0.631 z m -0.722,1.443 -0.812,-0.542 v -0.722 l 1.083,0.722 z m -0.27,0.902 -0.542,-0.361 v -0.632 l 0.721,0.451 c -0.089,0.181 -0.089,0.362 -0.179,0.542 m -0.362,0.903 -0.18,-0.091 v -0.722 l 0.361,0.271 c -0.091,0.18 -0.091,0.361 -0.181,0.542 m -0.18,0.992 v -0.632 l 0.09,0.091 c -0.09,0.18 -0.09,0.36 -0.09,0.541 m 0,3.88 c 0.09,-3.248 0.993,-6.407 2.526,-9.023 h 6.226 l 9.022,9.023 z m 0.18,5.323 -0.18,-0.181 v -0.632 c 0.09,0.271 0.09,0.542 0.18,0.813 m 0.181,0.541 0.271,0.813 -0.632,-0.362 v -0.721 z m 0.451,1.354 c 0.09,0.27 0.271,0.631 0.361,0.902 l -1.173,-0.722 v -0.632 z m 0.722,1.534 c 0.181,0.36 0.27,0.721 0.451,0.992 l -1.985,-1.173 v -0.722 z m 0.902,1.714 c 0.271,0.361 0.451,0.721 0.722,1.083 l -3.158,-1.895 v -0.632 z m 1.444,1.985 c 0.451,0.451 0.812,0.902 1.263,1.352 l -5.143,-2.976 v -0.723 z m -2.617,6.405 h -1.083 l -0.18,-0.179 v -0.632 c 0.451,0.27 0.812,0.541 1.263,0.811 m 1.985,0 h -1.173 l -2.075,-1.263 v -0.721 z m 1.895,0 h -1.083 l -4.06,-2.435 v -0.632 z m 1.985,0 h -1.173 l -5.955,-3.518 v -0.722 z m 1.985,0 h -1.173 l -7.94,-4.691 v -0.632 z m 1.894,0 h -1.083 l -9.924,-5.774 v -0.722 z m -4.331,-3.699 c 1.444,1.083 3.068,2.075 4.783,2.797 0.541,0.271 0.992,0.632 1.534,0.902 h -1.174 l -11.819,-6.947 v -0.631 z m 24.722,-1.624 c -3.338,3.248 -7.939,5.323 -12.992,5.323 -10.195,0 -18.316,-8.301 -18.406,-18.405 h 18.225 z M -36,-0.541 c -0.36,-0.09 -0.812,-0.181 -1.173,-0.271 l -10.105,-5.865 v -0.721 l 11.819,6.857 z m 1.354,0 -12.632,-7.309 v -0.63 l 13.715,7.939 z m 3.067,0 h -1.173 l -14.526,-8.391 v -0.631 h 0.09 z m -15.699,-5.143 c 2.797,2.346 6.045,4.06 9.654,5.143 h -9.654 z M -36.09,0 c 0.722,0.181 1.354,0.542 2.075,0.632 H -47.278 V 0 Z m -11.729,-50.255 v 0.451 l -0.271,-0.18 z m -0.452,40.692 h 0.452 v 0.36 z m 0.452,-28.241 v 0.361 l -0.632,-0.361 z m 0,-9.113 v 0.451 l -0.903,-0.451 z m 0,-2.436 v 0.631 l -0.993,-0.541 c 0.18,-0.18 0.271,-0.361 0.452,-0.451 z m 0,1.173 v 0.451 l -1.083,-1.172 z m -1.715,-0.361 c 0,-0.09 0.091,-0.09 0.091,-0.181 l 0.541,0.542 z m 1.715,20.662 v 0.631 l -1.805,-1.082 h 1.173 z m 0,20.932 -0.813,-0.541 c -0.541,-0.451 -1.082,-0.992 -1.533,-1.534 l 2.346,1.444 z m -1.624,-40.511 -0.813,-0.361 c 0.091,-0.181 0.361,-0.271 0.451,-0.452 l 1.445,0.813 z m 1.624,39.338 -2.437,-1.443 h 1.173 l 1.264,0.811 z m 0,-28.781 v 0.63 l -2.617,-1.533 h 1.173 z m -2.797,-10.557 0.09,-0.091 0.27,0.091 z m 2.797,1.533 v 0.632 l -2.797,-1.624 h 1.082 z m 0,1.083 v 0.632 l -3.7,-2.165 c 0.09,-0.181 0.271,-0.271 0.361,-0.451 z m 0,18.045 v 0.632 l -3.79,-2.165 h 1.173 z m -3.159,16.872 c -0.36,-0.36 -0.721,-0.902 -0.992,-1.263 l 2.075,1.263 z m 3.159,-33.744 v 0.632 l -4.241,-2.526 c 0.09,-0.181 0.18,-0.271 0.271,-0.452 z m 0,7.85 v 0.631 l -4.512,-2.616 h 1.083 z m 0,-6.767 v 0.632 l -4.872,-2.797 c 0.089,-0.181 0.27,-0.271 0.36,-0.451 z m 0,1.173 v 0.632 l -5.414,-3.158 c 0.09,-0.181 0.271,-0.271 0.361,-0.452 z M -49.083,-9.925 -52.511,-12 c -0.271,-0.36 -0.451,-0.631 -0.722,-0.992 l 5.324,3.067 z m 1.264,-30.405 v 0.631 l -5.865,-3.428 c 0.09,-0.181 0.18,-0.271 0.271,-0.451 z m 0,1.173 v 0.632 l -6.407,-3.7 0.271,-0.542 z m 0,28.15 v 0.631 l -5.865,-3.428 c -0.18,-0.361 -0.361,-0.542 -0.542,-0.902 z m 0,-23.639 v 0.631 l -6.496,-3.789 h 1.172 z m -1.444,-3.609 -5.414,-3.158 c 0.091,-0.181 0.181,-0.271 0.271,-0.451 l 6.316,3.609 z m -1.895,0 -3.879,-2.256 c 0.09,-0.18 0.09,-0.361 0.18,-0.541 l 4.782,2.797 z m 3.339,26.165 v 0.632 l -6.767,-3.97 c -0.181,-0.271 -0.271,-0.632 -0.451,-0.902 z m -5.324,-26.165 -2.345,-1.353 0.27,-0.542 3.248,1.895 z m 5.324,24.992 v 0.632 l -7.49,-4.331 c -0.089,-0.27 -0.27,-0.632 -0.36,-0.902 z m -7.218,-24.992 -0.813,-0.451 0.271,-0.542 1.624,0.993 z m -0.993,0 0.091,-0.091 0.089,0.091 z m 8.211,4.692 v 0.631 l -8.391,-4.872 h 0.09 0.992 z m 0,19.217 v 0.632 l -8.12,-4.691 c -0.091,-0.272 -0.181,-0.632 -0.271,-0.903 z m -8.662,-42.134 h 8.662 v 5.683 c -0.541,0.451 -1.083,0.902 -1.624,1.444 z m 8.662,24.089 v 0.632 l -8.662,-5.053 c 0.09,-0.18 0.09,-0.361 0.18,-0.541 z m 0,16.872 v 0.632 l -8.572,-4.963 -0.27,-0.811 z m 0,-15.789 v 0.632 l -8.933,-5.143 c 0.091,-0.181 0.091,-0.452 0.181,-0.632 z m 0,14.706 v 0.632 l -8.933,-5.232 c -0.09,-0.272 -0.09,-0.451 -0.181,-0.723 z m 0,-13.533 v 0.632 l -9.203,-5.323 c 0,-0.181 0.089,-0.451 0.18,-0.632 z m 0,1.083 v 0.271 h -0.632 l -8.752,-5.053 c 0,-0.181 0.091,-0.451 0.091,-0.632 z m 0,11.278 v 0.631 l -9.293,-5.323 c -0.091,-0.27 0,-0.541 -0.091,-0.811 z m -1.444,-11.007 h -1.173 l -6.947,-4.061 c 0,-0.18 0.09,-0.36 0.09,-0.541 z m 1.444,9.925 v 0.63 l -9.474,-5.503 c 0,-0.271 -0.09,-0.451 -0.09,-0.722 z m -3.429,-9.925 h -1.083 l -5.143,-2.978 v -0.632 z m 3.429,8.752 v 0.631 l -9.655,-5.594 c 0,-0.271 -0.089,-0.451 -0.089,-0.722 z m -4.692,-8.392 v 0.091 h 0.18 l 4.512,2.706 v 0.632 l -9.835,-5.684 c 0,-0.18 0.091,-0.451 0.091,-0.632 z m 4.692,3.88 v 0.632 l -9.835,-5.685 v -0.632 z m 0,2.256 v 0.632 l -9.835,-5.685 v -0.722 z m 0,1.173 v 0.632 l -9.835,-5.685 v -0.722 z m -9.744,-35.73 h -0.181 v -0.18 z m 6.405,9.384 h -6.586 v -9.022 h 0.632 l 7.398,7.488 c -0.542,0.542 -0.993,0.992 -1.444,1.534 m -6.586,0.541 h 6.135 c -2.075,2.617 -3.7,5.504 -4.872,8.662 h -1.263 z m 1.083,9.113 c -0.451,1.353 -0.813,2.706 -1.083,4.151 v -4.151 z m 8.842,14.436 v 0.632 l -9.925,-5.775 c 0,-0.18 0.09,-0.451 0.09,-0.632 z m -9.925,0.091 c 0.902,4.962 3.067,9.563 6.135,13.352 h -6.135 z m 6.586,13.714 c 1.083,1.262 2.075,2.345 3.339,3.428 v 5.594 h -9.925 V -9.563 Z M 7.218,-0.541 H 0.541 V -9.563 H 7.218 V -9.925 H 0.541 V -28.33 h 6.136 v -0.451 H 0.541 v -9.023 h 2.526 v -0.451 H 0.541 v -8.662 h 6.857 v -0.541 H 0.541 v -9.022 h 8.662 v -0.362 H 0.541 V -70.285 H 0 v 13.443 h -9.925 v -0.541 h 1.624 v -0.361 h -1.624 v -12.541 h -0.361 v 12.541 h -9.925 v -12.541 h -0.541 v 12.541 h -8.12 -18.406 v -12.541 h -0.541 v 12.541 h -0.632 v 0.361 h 0.632 v 0.541 h -9.114 l -0.811,-0.811 v -12.632 h -0.361 v 12.181 l -4.06,-4.061 -0.361,0.361 4.421,4.33 v 0.632 h -5.053 v 0.362 h 5.053 v 9.022 h -5.053 v 0.541 h 5.053 v 8.662 h -5.775 v 0.451 h 5.775 v 9.293 18.586 h -6.045 v 0.362 h 6.045 v 9.022 H -64.15 V 0 h 6.045 v 12.091 h 0.361 V 0 h 9.925 v 0.632 h -0.632 v 0.541 h 0.632 v 10.918 h 0.541 V 1.173 H -8.301 V 0.632 H -24.09 C -23.368,0.542 -22.286,0.181 -21.563,0 H -0.722 L 0,0.722 V 12.091 H 0.541 V 1.173 L 4.24,4.963 4.602,4.602 0.541,0.542 V 0 h 6.677 z" /></g><g
           transform="matrix(0.43090266,0,0,0.43090266,202.00333,34.044688)"
           id="g4585"><path
             id="path4587"
             style="fill:#231f20;fill-opacity:1;fill-rule:nonzero;stroke:none"
             d="M 0,0 V -0.09 H 0.632 L 0.361,0.271 Z M 0,1.083 V 0.451 L 0.181,0.632 Z M -0.541,0.181 V 0.902 L -2.075,-0.09 h 1.083 z m 0,39.067 v 7.218 h -2.888 c 1.354,-2.165 2.347,-4.602 2.888,-7.218 m 0,-37.894 v 0.451 0.18 L -4.06,-0.09 h 1.173 z m -3.339,22.014 0.272,0.542 -0.813,-0.542 z m -0.901,23.459 h 0.541 c -0.091,0.09 -0.091,0.181 -0.181,0.271 z M -0.812,2.346 -1.082,2.797 -5.955,-0.09 h 1.083 z m -2.345,22.286 c 0.179,0.27 0.27,0.541 0.451,0.902 l -3.7,-2.166 h 1.174 z M -0.541,2.707 V 13.443 H -6.767 Z M -4.962,47.91 -6.767,46.827 h 1.173 c 0.362,0.181 0.541,0.451 0.903,0.632 -0.09,0.18 -0.181,0.27 -0.271,0.451 M -1.263,3.158 -1.533,3.609 -7.939,-0.09 h 1.172 z m -1.083,23.007 c 0.09,0.272 0.271,0.632 0.362,0.902 l -6.317,-3.699 h 1.083 z m -3.248,22.467 -3.158,-1.805 h 1.173 l 2.347,1.354 c -0.091,0.18 -0.272,0.27 -0.362,0.451 m 3.88,-25.624 h -1.985 c -1.263,-1.895 -2.978,-3.699 -4.782,-5.143 -0.18,-0.18 -0.361,-0.271 -0.541,-0.451 l 1.985,-3.429 h 6.496 V 30.496 C -1.082,27.97 -2.075,25.534 -3.429,23.368 h 1.715 z m -6.225,-8.392 -1.173,-0.631 h 1.173 l 0.27,0.181 z M -1.805,3.97 -2.075,4.512 -9.474,0.181 V -0.09 h 0.722 z M -2.256,4.872 -2.526,5.323 -9.474,1.354 V 0.632 Z M -2.706,5.685 -3.067,6.226 -9.474,2.437 V 1.805 Z M -3.248,6.496 -3.519,7.038 -9.474,3.609 V 2.888 Z M -3.699,7.398 -3.97,7.85 -9.474,4.691 V 4.061 Z M -4.24,8.211 -4.511,8.752 -9.474,5.865 V 5.143 Z M -4.691,9.022 -4.962,9.564 -9.474,6.947 V 6.316 Z M -5.232,9.925 -5.504,10.376 -9.474,8.12 V 7.398 Z m -0.452,0.812 -0.271,0.541 -3.519,-2.075 V 8.571 Z m -0.451,0.903 -0.361,0.451 -2.978,-1.715 V 9.654 Z m -0.542,0.811 -0.27,0.451 -2.527,-1.443 v -0.632 z m -2.797,0.992 v -0.36 l 0.722,0.36 z m 2.346,-0.179 -0.18,0.179 H -7.939 L -9.474,12.632 V 11.91 Z m -1.263,2.165 -1.083,-0.541 v -0.722 l 1.354,0.812 z m -0.541,0.902 -0.542,-0.361 v -0.631 l 0.813,0.451 z m -0.451,0.812 h -0.091 v -0.722 l 0.362,0.27 z m -0.091,0.993 0.181,-0.271 c 0.722,0.541 1.534,1.082 2.165,1.714 l -2.346,-1.353 z m 3.429,2.526 1.083,1.353 -4.512,-2.617 v -0.721 z m -3.067,2.346 -0.362,-0.271 v -0.632 l 1.535,0.903 z m 1.984,0 -2.346,-1.354 v -0.721 l 3.429,2.075 z m 2.797,-0.181 c 0,0.09 0.091,0.09 0.091,0.181 H -5.232 L -9.474,20.481 V 19.85 Z m 2.526,4.872 0.272,0.813 -7.941,-4.602 v -0.542 h 0.362 z m 0.451,1.354 0.272,0.811 -8.392,-4.872 v -0.631 z m 0.362,1.353 c 0.09,0.271 0.09,0.451 0.18,0.722 l -8.662,-4.963 v -0.722 z m 0.27,1.263 c 0,0.27 0.09,0.451 0.09,0.722 l -8.842,-5.143 v -0.632 z m 0.09,1.173 c 0,0.271 0.091,0.451 0.091,0.721 l -8.933,-5.142 v -0.722 z m 0.091,1.173 v 0.722 l -8.933,-5.233 v -0.632 z m 0,1.173 v 0.631 l -8.933,-5.142 v -0.722 z m 0,1.083 c 0,0.18 -0.091,0.451 -0.091,0.631 L -9.474,31.76 v -0.632 z m -0.091,1.083 c 0,0.18 -0.09,0.451 -0.09,0.631 l -8.752,-5.052 v -0.722 z m -0.18,1.083 c 0,0.179 -0.09,0.36 -0.09,0.541 l -8.572,-4.963 v -0.631 z m -0.18,0.992 c 0,0.18 0,0.36 -0.09,0.541 l -8.392,-4.782 v -0.271 -0.451 z m -0.271,0.992 c -0.091,0.181 0,0.361 -0.091,0.542 l -8.12,-4.692 v -0.632 z m -0.27,0.902 c -0.091,0.181 -0.091,0.451 -0.181,0.632 l -7.76,-4.512 v -0.721 z m -0.272,0.992 -0.27,0.542 -7.399,-4.331 v -0.631 z m -0.451,0.903 c -0.09,0.18 -0.09,0.361 -0.18,0.542 l -7.038,-4.061 v -0.721 z m -0.36,0.902 c -0.09,0.181 -0.181,0.271 -0.271,0.451 L -9.474,40.782 V 40.15 Z m -0.451,0.813 -0.271,0.541 -6.136,-3.519 v -0.722 z m -0.452,0.902 c -0.089,0.18 -0.27,0.27 -0.361,0.451 l -5.594,-3.249 v -0.631 z m -5.955,0.631 v -0.722 l 1.083,0.722 z m 1.895,0 C -8.21,46.105 -8.842,45.654 -9.474,45.293 v -0.631 l 3.068,1.804 z m 1.985,0 -3.88,-2.255 v -0.723 l 4.963,2.978 z m -0.721,2.888 -3.159,-1.805 v -0.632 l 3.519,2.075 c -0.09,0.181 -0.271,0.181 -0.36,0.362 m -0.722,0.721 -2.437,-1.353 V 48 l 2.888,1.714 c -0.181,0.181 -0.27,0.181 -0.451,0.361 m -0.722,0.722 -1.715,-0.992 v -0.632 l 2.166,1.264 c -0.18,0.089 -0.271,0.27 -0.451,0.36 m -0.812,0.632 -0.903,-0.451 v -0.722 l 1.354,0.811 c -0.181,0.091 -0.271,0.271 -0.451,0.362 m -0.903,0.632 v -0.632 l 0.542,0.27 c -0.18,0.09 -0.361,0.271 -0.542,0.362 m 8.933,-5.234 v 9.023 h -8.933 v -3.159 c 2.256,-1.533 4.242,-3.608 5.775,-5.864 z m -9.384,-27.88 v 0.181 l -0.09,-0.09 z m 0,12.541 -0.27,-0.811 0.27,0.18 z m 0,-8.12 v 0.272 l -0.36,-0.272 z m 0,15.339 v 0.722 l -0.36,-0.181 c 0.09,-0.181 0.09,-0.36 0.18,-0.541 z m 0,-38.346 v 0.722 l -0.451,-0.271 0.271,-0.541 z m 0,19.218 v 0.632 l -0.541,-0.272 0.271,-0.541 z m 0,20.301 v 0.632 l -0.721,-0.362 0.27,-0.541 z m 0,6.947 v 0.451 l -0.721,-0.451 z m 0,-45.293 v 0.632 c -0.27,-0.181 -0.631,-0.361 -0.902,-0.542 l 0.271,-0.451 z m 0,28.872 -0.541,-0.361 c -0.09,-0.271 -0.27,-0.631 -0.451,-0.902 l 0.992,0.542 z m 0,-9.744 v 0.722 l -1.082,-0.632 0.361,-0.451 z m 0,-6.677 v 0.631 l -1.173,-0.631 z m 0,26.978 v 0.722 l -1.173,-0.722 c 0.091,-0.181 0.181,-0.272 0.271,-0.451 z m 0,-38.346 v 0.722 l -1.443,-0.813 0.27,-0.541 z m 0,19.218 v 0.631 l -1.533,-0.902 0.27,-0.451 z m 0,20.301 v 0.631 l -1.714,-0.993 c 0.09,-0.18 0.271,-0.27 0.361,-0.451 z m 0,-38.346 v 0.631 l -1.894,-1.082 0.27,-0.451 z m 0,19.127 v 0.091 h -1.173 L -12,22.466 l 0.361,-0.541 z m 0,6.316 -1.353,-0.812 -0.812,-1.082 2.165,1.263 z m -1.984,-6.225 h -0.362 l 0.09,-0.181 c 0.091,0.09 0.181,0.09 0.272,0.181 m 1.984,1.082 v 0.632 l -2.346,-1.354 h 1.173 z m 0,19.128 v 0.721 l -2.346,-1.352 c 0.09,-0.181 0.271,-0.272 0.362,-0.451 z m 0,-38.346 V 5.594 L -12.36,4.15 -12,3.699 Z m 0,42.857 v 0.722 l -2.706,-1.624 h 1.173 z m 0,-41.684 v 0.632 l -2.887,-1.624 0.271,-0.541 z m 0,19.85 -2.977,-1.805 0.271,-0.45 2.706,1.533 z m 0,18.496 v 0.631 l -2.977,-1.713 c 0.18,-0.181 0.361,-0.272 0.451,-0.452 z m 0,-29.324 v 0.632 l -3.067,-1.714 h 1.083 z m 0,-7.939 V 7.85 l -3.338,-1.985 0.271,-0.451 z m 0,19.85 -3.518,-1.986 0.27,-0.541 3.248,1.895 z m 0,18.496 v 0.721 l -3.699,-2.165 c 0.181,-0.091 0.27,-0.27 0.451,-0.451 z m 0,-37.173 v 0.632 l -3.88,-2.256 0.272,-0.451 z m 0,19.849 -3.067,-1.804 c -0.271,-0.271 -0.541,-0.541 -0.813,-0.722 l 0.181,-0.27 3.699,2.075 z m -4.24,-4.782 h 1.083 l -0.272,0.542 z m 4.24,-13.984 v 0.721 l -4.33,-2.526 0.271,-0.541 z m -0.36,37.082 h -1.173 l -2.978,-1.804 c 0.181,-0.091 0.271,-0.271 0.452,-0.361 z m 0.36,2.436 v 0.632 l -4.601,-2.707 h 1.083 z m 0,-38.345 v 0.631 l -4.872,-2.797 0.271,-0.451 z m 0,5.593 v 0.722 l -0.27,-0.181 c -0.361,-0.27 -0.722,-0.451 -1.083,-0.63 l -3.7,-2.076 h 0.994 0.179 z m 0,-4.51 v 0.721 l -5.323,-3.068 0.27,-0.541 z m 0,5.774 v 0.541 l -5.413,-3.067 c 1.895,0.631 3.789,1.443 5.413,2.526 m -2.346,29.052 h -1.083 c -0.63,-0.361 -1.352,-0.812 -1.984,-1.173 0.181,-0.09 0.36,-0.271 0.541,-0.36 z m 2.346,-33.653 v 0.63 l -5.864,-3.338 0.36,-0.541 z m -3.88,11.909 -2.345,-1.354 h 1.172 l 1.445,0.903 z m 3.069,-11.279 h -1.083 l -4.421,-2.526 0.27,-0.451 z m -5.685,0.452 0.632,0.09 c 0,0 0.451,0.361 1.173,0.631 z m 2.256,32.571 h -1.173 l -1.083,-0.631 c 0.181,-0.091 0.451,-0.272 0.632,-0.361 0.541,0.27 1.083,0.721 1.624,0.992 m 4.24,3.519 v 0.722 l -6.586,-3.88 h 1.173 z m -2.706,-36.542 h -1.174 l -2.886,-1.624 0.27,-0.541 z m 2.706,39.519 v 2.888 h -7.218 c 2.617,-0.541 5.053,-1.535 7.218,-2.888 m -4.962,-39.608 0.271,0.089 h -1.083 l -1.533,-0.811 0.27,-0.451 z m -1.263,33.112 h -1.173 l -0.271,-0.18 c 0.271,-0.091 0.451,-0.181 0.722,-0.271 z m -0.361,-33.023 h -1.173 l 0.271,-0.451 z m 2.346,11.911 c -1.173,-0.903 -2.437,-1.625 -3.88,-1.986 h 1.083 l 2.978,1.715 z m 4.06,-7.039 -0.271,0.542 -7.85,-4.511 0.091,-0.18 1.354,0.271 z m 0.18,32.843 v 0.631 l -8.571,-4.962 h 1.173 z m -0.631,-31.94 -0.361,0.451 -7.76,-4.511 c 0.091,-0.18 0.181,-0.27 0.272,-0.451 z m -0.542,0.812 -0.27,0.541 -7.76,-4.601 0.272,-0.451 z m -0.451,0.812 -0.27,0.542 -7.85,-4.512 0.271,-0.541 z m -0.541,0.902 -0.27,0.451 -7.76,-4.51 0.27,-0.452 z m 2.165,30.496 v 0.181 c -0.18,0.091 -0.27,0.181 -0.451,0.27 l -10.015,-5.864 h 1.083 z m -2.616,-29.683 -0.271,0.451 h -0.18 l -7.669,-4.512 0.27,-0.451 z m -6.226,-8.12 -0.27,0.541 -1.715,-0.993 c 0.451,0 0.813,0.09 1.264,0.09 z m 4.962,8.571 h -1.173 l -6.134,-3.61 0.27,-0.541 z m -1.984,0 h -1.083 l -4.782,-2.797 0.361,-0.451 z m -1.895,0 h -1.172 l -3.248,-1.895 0.27,-0.542 z m 6.948,29.954 -0.542,0.271 -11.098,-6.406 h 1.083 0.09 z m -8.933,-29.954 h -1.083 l -1.804,-1.083 0.271,-0.541 z m 0.361,-7.76 -0.271,0.542 -3.067,-1.805 h 1.083 z m -2.255,7.76 h -1.173 l -0.362,-0.271 0.271,-0.451 z m 9.834,30.496 c -0.18,0.09 -0.452,0.181 -0.631,0.27 l -11.911,-6.947 h 1.084 z m -8.03,-37.354 -0.271,0.452 -4.33,-2.436 c 0.36,0 0.631,-0.181 0.992,-0.181 z m 5.684,9.835 c 2.526,2.076 4.15,5.324 4.15,8.932 0,6.406 -4.962,11.549 -11.368,11.549 -1.443,0 -2.887,-0.361 -4.15,-0.812 z m -6.135,-9.022 -0.361,0.541 -5.324,-3.067 c 0.271,-0.091 0.632,-0.091 0.903,-0.181 z m -5.504,29.142 c 0.36,0.09 0.722,0.271 1.083,0.361 h -1.264 z m 12.902,7.94 c -0.18,0.091 -0.451,0.181 -0.631,0.27 l -12.722,-7.398 v -0.09 h 1.083 z m -13.083,-40.06 c -0.18,0 -0.36,0.09 -0.541,0.09 l -0.18,-0.09 z m 11.279,40.782 -12.09,-7.038 0.36,-0.451 12.451,7.218 c -0.27,0.09 -0.451,0.181 -0.721,0.271 m -1.264,0.361 -11.277,-6.496 0.27,-0.542 11.73,6.857 c -0.272,0.09 -0.451,0.09 -0.723,0.181 m -4.872,-37.263 -0.27,0.45 -6.226,-3.608 c 0.27,-0.091 0.542,-0.091 0.812,-0.181 z m 3.52,37.623 -10.376,-6.045 0.27,-0.451 10.917,6.317 c -0.27,0.089 -0.541,0.089 -0.811,0.179 m -9.565,-8.48 -0.27,0.541 -1.083,-0.722 h 1.083 z m 8.03,8.752 -9.383,-5.504 0.271,-0.451 10.015,5.774 c -0.271,0.09 -0.632,0.181 -0.903,0.181 m -2.436,-37.083 -0.36,0.451 -6.948,-3.97 c 0.271,-0.091 0.451,-0.18 0.722,-0.27 z m -5.775,-4.511 -0.811,0.271 -0.813,-0.452 h 1.173 z m 6.498,41.684 -8.122,-4.692 0.272,-0.542 8.932,5.144 c -0.361,0 -0.722,0.09 -1.082,0.09 m -0.994,0 h -0.902 l -6.767,-3.88 0.271,-0.451 7.669,4.331 z m -3.248,-0.181 -4.872,-2.887 0.271,-0.451 6.045,3.519 c -0.451,0 -0.993,-0.09 -1.444,-0.181 m 2.978,-36.18 -0.271,0.541 -7.669,-4.421 c 0.18,-0.09 0.452,-0.18 0.722,-0.27 z m -5.504,28.421 -0.271,0.451 -2.616,-1.534 h 1.173 z m -0.812,6.947 -2.075,-1.172 0.361,-0.542 c 1.263,0.721 2.617,1.534 3.879,2.255 -0.721,-0.18 -1.443,-0.27 -2.165,-0.541 m -0.18,-40.241 c -0.271,0.091 -0.451,0.091 -0.722,0.181 l -1.534,-0.812 h 1.083 z m 1.173,41.234 h -1.083 l -2.436,-1.354 0.09,-0.09 c 0.812,0.361 1.624,0.631 2.436,0.903 z m 4.872,-35.459 -0.271,0.451 -8.301,-4.781 c 0.181,-0.091 0.452,-0.181 0.632,-0.271 z m -6.767,35.459 h -1.173 l -0.993,-0.541 0.361,-0.452 z m -1.985,0 h -0.451 l 0.09,-0.181 z m 8.211,-34.647 -0.271,0.451 -8.752,-5.052 0.541,-0.271 z m -5.053,27.519 -0.271,0.451 -4.06,-2.346 h 1.173 z m 4.24,-25.082 c 0.722,-0.181 1.445,-0.272 2.256,-0.272 2.616,0 4.963,0.903 6.857,2.347 l -11.459,19.759 c -2.977,-1.263 -5.323,-3.7 -6.406,-6.767 z m -5.955,-8.662 c -0.18,0.089 -0.45,0.27 -0.631,0.361 l -2.345,-1.354 h 1.172 z m 6.317,7.037 -0.271,0.542 -9.294,-5.414 0.542,-0.271 z M -33.022,-0.09 h 22.646 l -7.759,13.354 -0.18,0.179 h -14.707 z m 1.804,15.88 -1.804,-1.083 v -0.632 l 2.436,1.444 c -0.181,0.09 -0.451,0.18 -0.632,0.271 m -0.992,0.541 -0.812,-0.451 v -0.722 l 1.353,0.903 z m -0.812,0.541 v -0.541 l 0.361,0.271 c -0.181,0.089 -0.181,0.18 -0.361,0.27 m 0.542,6.136 c -0.181,-0.091 -0.362,-0.271 -0.542,-0.362 v -0.721 l 1.714,1.083 z m 1.984,0 -2.526,-1.534 v -0.632 l 3.609,2.166 z m 1.894,0 -4.42,-2.617 v -0.722 l 5.593,3.339 z m 1.986,0 -6.406,-3.79 v -0.631 l 7.489,4.421 z m 2.977,-0.091 -0.09,0.091 h -0.993 l -8.3,-4.872 v -0.722 z m -0.992,0.451 c -4.06,1.173 -7.308,4.421 -8.391,8.482 v -8.482 z m -8.391,11.549 c 0,-5.413 3.79,-9.925 8.842,-11.188 l -8.391,14.436 c -0.361,-1.082 -0.451,-2.075 -0.451,-3.248 m 0,3.068 c 0.09,0.271 0.09,0.452 0.18,0.722 l -0.18,0.36 z m 0,1.985 0.361,-0.722 c 1.173,2.978 3.608,5.414 6.586,6.677 -0.09,0.18 -0.271,0.361 -0.361,0.541 h -6.586 z m 4.782,9.564 -0.271,0.541 -4.511,-2.616 v -0.632 h 0.09 z m -0.813,1.353 -3.969,-2.346 V 47.91 l 4.241,2.527 z m -0.451,0.902 -3.518,-2.075 v -0.722 l 3.79,2.256 z m -0.541,0.813 -2.977,-1.805 v -0.632 l 3.338,1.896 z m -0.451,0.811 -2.526,-1.443 v -0.722 l 2.796,1.714 z m -2.526,-0.992 2.166,1.264 c -0.813,-0.272 -1.445,-0.723 -2.166,-1.264 m 0,0.541 c 0.721,0.451 1.353,0.812 2.075,1.174 v 0.179 c -0.722,-0.36 -1.354,-0.721 -2.075,-1.262 z m 1.804,1.624 -0.27,0.542 -1.534,-0.902 v -0.722 z m -0.451,0.902 -0.27,0.362 h -0.181 l -0.902,-0.541 v -0.632 z m -0.541,0.903 -0.812,1.444 v -1.444 z m -0.632,-0.541 h -0.18 l -0.09,-0.271 z m -0.721,-38.165 v 0.18 l -0.09,-0.091 z m 0,5.683 v 0.091 l -0.09,-0.091 z m 0,18.136 -0.271,-0.181 0.271,-0.451 z m -0.452,5.323 h 0.452 v 0.361 z m 0.452,-4.782 v 0.632 l -0.813,-0.451 0.361,-0.541 z m -0.903,-28.06 h 0.903 v 0.452 z m 0.903,4.33 v 0.632 l -0.903,-0.541 c 0.181,-0.091 0.271,-0.27 0.451,-0.361 z m 0,24.813 v 0.632 l -1.264,-0.723 0.271,-0.541 z m 0,-42.857 v 0.631 l -1.625,-0.992 h 1.084 z m 0,19.218 v 0.631 l -1.715,-0.992 c 0.18,-0.09 0.271,-0.361 0.451,-0.451 z m 0,24.812 v 0.632 l -1.715,-1.083 0.271,-0.452 z m 0,-20.301 v 0.632 l -2.076,-1.264 h 1.173 z m 0,21.384 v 0.631 l -2.256,-1.263 0.27,-0.541 z m 0,-24.813 v 0.632 L -36,19.76 c 0.181,-0.181 0.181,-0.271 0.361,-0.362 z m 0,27.7 L -36,46.827 h 1.173 l 1.264,0.812 z m -1.264,-1.805 -1.444,-0.903 0.271,-0.451 2.347,1.354 z m 1.264,-30.857 -2.797,-1.624 h 1.082 l 1.715,0.993 z m 0,6.135 v 0.632 l -3.159,-1.895 c 0.091,-0.18 0.181,-0.27 0.362,-0.451 z m -3.159,24.722 -0.09,-0.09 0.271,-0.451 0.902,0.541 z m 3.159,5.233 -1.986,-1.173 c -0.541,-0.451 -0.992,-0.992 -1.533,-1.534 l 3.519,2.075 z m 0,-50.256 v 0.632 l -3.61,-2.165 H -36 Z m 0,48 -3.7,-2.165 0.181,-0.451 h 0.27 l 3.249,1.986 z m 0,-26.616 v 0.181 h -0.903 l -2.977,-1.805 c 0.09,-0.181 0.361,-0.27 0.451,-0.451 z m 0,2.256 v 0.632 l -3.97,-2.347 h 1.173 z m 0,25.443 -4.241,-2.436 0.361,-0.451 3.88,2.256 z m -4.332,-3.699 h 0.271 l -0.09,0.181 z m 1.535,-23.819 -1.715,-0.993 c 0.091,-0.18 0.271,-0.271 0.361,-0.451 l 2.436,1.444 z m -1.715,25.533 c 0.271,0.361 0.632,0.722 0.993,1.083 l -1.173,-0.722 z m 4.512,-31.85 -4.783,-2.706 h 1.173 l 3.61,2.076 z m -4.783,6.317 -0.27,-0.271 c 0.09,-0.18 0.27,-0.271 0.361,-0.451 l 1.082,0.722 z m 0.271,24.721 c -0.18,-0.27 -0.451,-0.631 -0.631,-0.902 l 0.811,0.541 z m 2.166,3.068 c 0.721,0.722 1.533,1.353 2.346,1.894 v 0.091 l -5.143,-2.977 0.27,-0.542 z m 2.346,-48.271 v 0.632 l -5.504,-3.248 h 1.083 z m 0,23.73 v 0.632 l -5.594,-3.339 c 0,-0.09 0.09,-0.09 0.09,-0.181 h 0.721 z m 0,27.067 v 0.632 l -5.685,-3.339 0.27,-0.451 z m 0,-25.984 v 0.631 l -6.136,-3.519 0.271,-0.541 z m 0,27.067 v 0.631 l -6.136,-3.608 0.271,-0.451 z m -5.143,-7.94 -0.542,-0.361 c -0.18,-0.361 -0.451,-0.631 -0.631,-0.993 l 2.346,1.354 z m -0.542,0.361 c 0.091,0.181 0.181,0.451 0.361,0.632 l -0.992,-0.632 z m 5.685,-18.315 v 0.631 l -6.587,-3.879 c 0.09,-0.181 0.18,-0.272 0.271,-0.452 z m -0.452,-11.008 -6.225,-3.519 h 1.083 l 5.594,3.158 c -0.181,0.09 -0.271,0.271 -0.452,0.361 m 0.452,38.075 v 0.271 h -0.452 l -6.225,-3.519 0.27,-0.542 z m 0,-25.985 v 0.632 l -7.039,-4.061 0.272,-0.541 z m -3.61,16.601 -3.067,-1.804 c -0.181,-0.271 -0.271,-0.631 -0.451,-0.903 l 3.789,2.166 z m 1.173,9.655 -4.691,-2.707 0.27,-0.452 5.594,3.159 z m 2.437,-25.083 v 0.631 l -7.399,-4.331 c 0.09,-0.179 0.09,-0.36 0.181,-0.541 z m 0,-27.068 v 0.632 l -7.49,-4.421 h 1.174 z m -3.159,41.594 -4.24,-2.436 -0.27,-0.812 4.872,2.797 z m -1.173,10.557 -3.337,-1.805 0.36,-0.541 4.06,2.346 z m 4.332,-24 v 0.631 l -7.76,-4.511 c 0.091,-0.181 0.091,-0.361 0.18,-0.541 z m -6.497,-7.669 -1.353,-0.813 h 1.083 l 0.541,0.361 c -0.09,0.181 -0.181,0.271 -0.271,0.452 m 6.497,8.841 v 0.632 l -8.031,-4.691 c 0.091,-0.181 0,-0.361 0.091,-0.542 z m -2.617,11.459 -5.233,-3.068 c -0.09,-0.27 -0.181,-0.45 -0.271,-0.722 l 5.775,3.339 z m -3.699,11.369 -1.805,-0.993 0.271,-0.542 c 0.902,0.542 1.805,0.994 2.707,1.535 z m 6.316,-21.745 v 0.632 l -8.301,-4.782 c 0.09,-0.181 0,-0.451 0.09,-0.632 z m -5.053,14.617 -3.248,-1.895 h 1.173 l 2.345,1.354 z m 2.887,-5.053 -6.135,-3.608 c -0.09,-0.272 -0.09,-0.452 -0.181,-0.723 l 6.587,3.79 z m 2.166,-8.391 v 0.632 l -8.572,-4.963 c 0,-0.18 0.181,-0.451 0.181,-0.632 z m -8.301,20.572 -0.271,-0.181 0.271,-0.451 1.173,0.632 z m 6.947,-37.714 -7.309,-4.151 h 1.173 l 6.677,3.789 c -0.18,0.091 -0.36,0.271 -0.541,0.362 m -0.271,24.631 -6.947,-3.97 c -0.091,-0.271 -0.091,-0.451 -0.091,-0.722 l 7.309,4.24 z m 1.625,-6.406 v 0.631 l -8.752,-5.053 c 0,-0.179 0.089,-0.451 0.089,-0.63 z m 0,1.173 v 0.631 l -8.842,-5.143 c 0,-0.18 0.09,-0.451 0.09,-0.631 z m -1.173,4.421 -7.579,-4.421 c 0,-0.27 -0.09,-0.451 -0.09,-0.721 l 7.939,4.691 z m 1.173,-3.339 v 0.632 l -8.933,-5.143 c 0,-0.18 0.091,-0.451 0.091,-0.631 z m 0,1.173 v 0.091 l -0.181,0.36 -8.752,-5.052 v -0.271 -0.36 z m -0.722,1.354 -8.12,-4.782 c 0,-0.18 -0.091,-0.361 -0.091,-0.632 l 8.571,4.873 z M -33.563,4.782 V 5.414 L -42.586,0.181 V -0.09 h 0.722 z m 0,1.173 V 6.587 L -42.586,1.354 V 0.722 Z m 0,1.083 V 7.669 L -42.586,2.437 V 1.805 Z m 0,1.173 V 8.842 L -42.586,3.609 V 2.978 Z m 0,1.082 v 0.632 l -9.023,-5.234 v -0.63 z m 0,1.173 v 0.632 L -42.586,5.865 V 5.233 Z m 0,1.083 v 0.632 L -42.586,6.947 V 6.316 Z m 0,1.173 v 0.632 L -42.586,8.12 V 7.489 Z m -9.023,0.721 v -0.36 l 0.722,0.36 z m 1.533,0 -1.533,-0.811 V 12 l 2.707,1.443 z m 1.986,0 -3.519,-1.984 v -0.632 l 4.602,2.616 z m 1.894,0 -5.413,-3.067 V 9.744 L -36,13.443 Z m 1.985,0 -7.398,-4.24 V 8.571 l 8.482,4.872 z m -0.541,5.414 -6.857,-3.969 v -0.632 l 7.308,4.24 c -0.18,0.091 -0.271,0.271 -0.451,0.361 m -0.722,0.722 -6.135,-3.609 V 15.339 L -36,19.128 c -0.18,0.09 -0.271,0.27 -0.451,0.451 m -0.722,0.722 -5.413,-3.158 v -0.631 l 5.864,3.338 c -0.18,0.18 -0.36,0.27 -0.451,0.451 m -0.631,0.721 -4.782,-2.796 v -0.632 l 5.143,2.977 c -0.09,0.181 -0.271,0.271 -0.361,0.451 m -0.632,0.722 -4.15,-2.346 v -0.631 l 4.511,2.526 c -0.09,0.181 -0.271,0.271 -0.361,0.451 m -0.631,0.813 -3.519,-2.076 V 19.85 l 3.88,2.255 c -0.091,0.181 -0.272,0.271 -0.361,0.452 m -3.159,0.451 -0.36,-0.271 v -0.632 l 1.533,0.903 z m 2.888,0 h -0.902 l -2.346,-1.354 v -0.632 l 3.338,1.895 z m -1.173,2.075 -2.075,-1.173 v -0.542 h 0.36 l 1.986,1.173 z m -0.451,0.812 -1.624,-0.903 v -0.631 l 1.805,1.082 c -0.091,0.181 -0.091,0.272 -0.181,0.452 m -0.451,0.902 -1.173,-0.632 v -0.631 l 1.443,0.812 c -0.089,0.18 -0.18,0.27 -0.27,0.451 m -0.271,0.992 -0.902,-0.541 v -0.632 l 1.083,0.632 c -0.091,0.181 -0.091,0.361 -0.181,0.541 m -0.361,0.902 -0.541,-0.27 v -0.632 l 0.722,0.361 c -0.09,0.181 -0.09,0.362 -0.181,0.541 m -0.27,0.994 -0.271,-0.181 v -0.632 l 0.451,0.271 c -0.091,0.18 -0.091,0.361 -0.18,0.542 m -0.181,0.992 h -0.09 v -0.632 h 0.181 c 0,0.181 -0.091,0.451 -0.091,0.632 m -0.09,8.39 c 0.09,0.271 0.09,0.452 0.181,0.722 l -0.181,-0.09 z m 0.36,1.264 c 0.091,0.271 0.091,0.541 0.181,0.812 l -0.541,-0.361 V 40.15 Z m 0.362,1.354 0.27,0.811 -0.992,-0.541 v -0.632 z m 0.541,1.443 c 0.091,0.27 0.27,0.632 0.451,0.902 l -1.714,-0.993 v -0.631 z m 0.721,1.534 c 0.181,0.36 0.362,0.631 0.542,0.992 l -2.526,-1.443 v -0.632 z m -1.984,1.804 v -0.631 c 0.36,0.18 0.722,0.451 1.083,0.631 z m 2.978,-0.09 v 0.09 h -1.083 c -0.632,-0.361 -1.263,-0.812 -1.895,-1.173 v -0.631 z m 0.451,3.158 -3.429,-1.985 v -0.632 l 3.699,2.166 z m -0.451,0.903 -2.978,-1.715 V 48.09 l 3.248,1.805 z m -0.542,0.811 -2.436,-1.443 v -0.632 l 2.797,1.624 z m -0.452,0.813 -1.984,-1.083 v -0.632 l 2.256,1.263 z m -0.451,0.901 -1.533,-0.901 v -0.632 l 1.805,0.992 z m -0.541,0.812 -0.992,-0.541 v -0.631 l 1.263,0.721 z m -0.451,0.812 -0.541,-0.271 v -0.63 l 0.812,0.451 z m -0.541,0.812 v -0.541 l 0.271,0.09 z M 4.782,55.85 H 0 V 46.827 H 2.617 V 46.466 H 0 V 34.917 13.985 H 2.978 V 13.443 H 0 V 1.985 L 1.083,-0.09 H 7.76 V -0.451 H 1.354 L 3.88,-4.872 3.519,-5.053 0.812,-0.451 H 0 v -13.444 h -0.541 v 13.444 h -8.933 v -0.271 l 6.858,-11.729 -0.451,-0.271 -6.407,11.098 v -12.271 h -0.451 v 13.083 l -0.18,0.361 h -22.917 v -13.444 h -0.541 v 13.444 h -9.023 v -13.444 h -0.361 v 13.444 h -7.759 v 0.361 h 7.759 v 13.533 h -5.954 v 0.542 h 5.954 v 9.023 h -5.954 v 0.36 h 5.954 v 23.098 h -3.789 v 0.361 h 3.789 v 9.023 h -6.948 v 0.541 h 6.858 l -4.24,7.218 0.36,0.271 3.97,-6.768 v 11.64 h 0.361 V 56.391 h 9.023 v 2.255 l -4.963,8.572 0.361,0.27 4.602,-7.939 v 9.203 h 0.541 V 58.736 l 1.353,-2.345 h 10.195 11.549 v 12.361 h 0.451 V 56.391 h 8.933 V 68.752 H 0 V 56.391 h 4.782 z" /></g><g
           transform="matrix(0.43090266,0,0,0.43090266,213.78163,34.161247)"
           id="g4589"><path
             id="path4591"
             style="fill:#231f20;fill-opacity:1;fill-rule:nonzero;stroke:none"
             d="M 0,0 V 0.632 L -1.624,-0.36 h 1.083 z M 0,1.173 V 1.805 L -3.609,-0.36 h 1.172 z M 0,2.256 V 2.888 L -5.504,-0.36 h 1.083 z M 0,3.429 V 4.061 L -7.489,-0.36 h 1.174 z M 0,4.512 V 5.144 L -9.022,-0.09 v -0.27 h 0.721 z M 0,5.685 V 6.316 L -9.022,1.083 V 0.451 Z m 0,1.083 v 0.63 L -9.022,2.166 V 1.534 Z M 0,7.94 V 8.571 L -9.022,3.339 V 2.707 Z M 0,9.022 V 9.654 L -9.022,4.421 V 3.79 Z m 0,1.173 v 0.632 L -9.022,5.595 V 4.963 Z m 0,1.083 V 11.91 L -9.022,6.677 V 6.046 Z m 0,1.173 v 0.632 L -9.022,7.85 V 7.219 Z m 0,1.083 v 0.632 L -9.022,8.933 V 8.301 Z m 0,1.173 v 0.632 L -9.022,10.105 V 9.474 Z m 0,1.083 v 0.631 l -9.022,-5.233 v -0.631 z m 0,1.173 v 0.632 l -9.022,-5.234 v -0.632 z m 0,1.082 v 0.632 l -9.022,-5.233 v -0.631 z m 0,1.174 v 0.631 l -9.022,-5.233 v -0.632 z m 0,1.082 v 0.632 l -9.022,-5.234 v -0.631 z m 0,1.173 v 0.631 l -9.022,-5.233 v -0.631 z m 0,1.083 v 0.631 l -9.022,-5.233 v -0.632 z m 0,1.172 v 0.632 l -9.022,-5.233 v -0.632 z m 0,1.083 v 0.632 l -9.022,-5.233 v -0.632 z m 0,1.173 v 0.632 l -9.022,-5.233 v -0.632 z m 0,1.083 v 0.631 l -9.022,-5.232 v -0.632 z m 0,1.173 v 0.631 L -9.022,23.64 v -0.632 z m 0,1.082 v 0.632 l -9.022,-5.233 v -0.631 z m 0,1.173 v 0.632 l -9.022,-5.233 v -0.631 z m 0,1.083 v 0.632 l -9.022,-5.233 v -0.632 z m 0,1.173 v 0.632 L -9.022,28.15 v -0.631 z m 0,1.083 v 0.632 l -9.022,-5.234 v -0.631 z m 0,1.173 v 0.632 l -9.022,-5.234 v -0.632 z m 0,1.083 v 0.631 l -9.022,-5.233 v -0.632 z m 0,1.173 v 0.631 L -9.022,32.662 V 32.03 Z m 0,1.082 v 0.632 l -9.022,-5.234 v -0.631 z m 0,1.173 v 0.631 l -9.022,-5.232 v -0.632 z m 0,1.083 v 0.631 L -9.022,36 v -0.632 z m 0,1.172 v 0.632 l -9.022,-5.233 v -0.631 z m 0,1.083 v 0.632 l -9.022,-5.233 v -0.632 z m 0,1.173 v 0.632 l -9.022,-5.233 v -0.632 z m 0,1.083 v 0.631 L -9.022,40.512 V 39.88 Z m 0,1.173 v 0.631 l -9.022,-5.232 v -0.632 z m 0,1.082 V 48 l -9.022,-5.233 v -0.631 z m 0,1.174 v 0.631 L -9.022,43.94 v -0.631 z m 0,1.082 v 0.632 l -9.022,-5.234 v -0.63 z m 0,1.173 v 0.632 l -9.022,-5.234 v -0.631 z m 0,1.083 v 0.632 l -9.022,-5.234 v -0.632 z m 0,1.173 v 0.632 l -9.022,-5.234 v -0.632 z m 0,1.083 v 0.631 l -9.022,-5.233 v -0.632 z m -7.128,1.443 h -1.173 l -0.721,-0.361 v -0.631 z m 1.985,0 h -1.172 l -2.707,-1.534 v -0.631 z m 1.895,0 h -1.083 l -4.691,-2.616 v -0.632 z m 1.984,0 H -2.437 L -9.022,51.79 V 51.158 Z M 0,55.309 v 0.27 h -0.451 l -8.571,-4.872 v -0.632 z m 6.045,0.27 H 0.541 V -0.36 H 7.579 V -0.722 H 0.541 V -14.165 H 0 v 13.443 h -9.022 v -13.443 h -0.362 v 13.443 h -6.856 v 0.362 h 6.856 v 55.939 h -6.947 v 0.541 h 6.947 v 12.271 h 0.362 V 56.12 H 0 V 68.391 H 0.541 V 56.12 h 5.504 z" /></g><g
           transform="matrix(0.43090266,0,0,0.43090266,241.81176,43.880946)"
           id="g4593"><path
             id="path4595"
             style="fill:#231f20;fill-opacity:1;fill-rule:nonzero;stroke:none"
             d="M 0,0 C -0.902,-5.053 -3.157,-9.563 -6.405,-13.354 H 0 Z M -6.405,23.639 C -3.157,19.85 -0.902,15.248 0,10.195 v 13.444 z m -0.632,-36.993 0.181,0.181 -0.362,-0.181 z M -7.488,24.09 c -0.09,0.181 -0.271,0.27 -0.451,0.451 L -8.751,24 h 1.082 z m -1.354,-37.985 h -0.18 v -0.09 z m 0.722,-0.721 c 0.27,0.27 0.361,0.451 0.632,0.721 h -0.541 l -0.993,-0.542 v -0.721 z m 1.264,0.721 c -0.722,-0.812 -1.354,-1.443 -2.166,-2.166 v -6.856 H 0 v 9.022 z m 0.721,1.624 c 0.271,0.361 0.632,0.812 0.903,1.173 l -3.79,-2.256 h 0.993 z m 2.075,2.978 -4.962,-2.888 v -0.721 l 4.331,2.616 c 0.27,0.361 0.451,0.632 0.631,0.993 m 0.993,1.714 -5.955,-3.519 v -0.631 l 5.414,3.158 c 0.18,0.27 0.36,0.632 0.541,0.992 m 0.721,1.534 -6.676,-3.88 v -0.721 l 6.225,3.699 c 0.181,0.27 0.361,0.632 0.451,0.902 m 0.542,1.443 -7.218,-4.24 v -0.632 l 6.947,4.061 z m 0.541,1.444 -7.759,-4.511 v -0.722 l 7.489,4.421 z m 0.361,1.353 -8.12,-4.782 v -0.631 l 7.94,4.602 c 0.09,0.27 0.09,0.541 0.18,0.811 m 0.271,1.264 -8.391,-4.872 v -0.723 l 8.21,4.873 c 0.09,0.271 0.09,0.451 0.181,0.722 M -0.36,0.722 -9.022,-4.331 V -4.962 L -0.541,0 c 0,0.271 0.181,0.451 0.181,0.722 m 0.18,1.263 -8.842,-5.143 V -3.88 l 8.751,5.143 c 0,0.271 0.091,0.451 0.091,0.722 m 0.09,1.173 -8.932,-5.233 v -0.632 l 8.842,5.144 c 0,0.27 0.09,0.451 0.09,0.721 m 0,1.173 -8.932,-5.233 V -1.624 L -0.09,3.609 Z M 0,5.053 c 0,0.09 -0.09,0.27 -0.09,0.36 L -9.022,0.181 V -0.451 L -0.09,4.782 C -0.09,4.872 0,4.962 0,5.053 M -0.09,6.496 -9.022,1.354 V 0.632 L -0.09,5.864 Z M -0.18,7.579 -9.022,2.437 V 1.805 l 8.932,5.142 c 0,0.181 -0.09,0.451 -0.09,0.632 M -0.271,8.661 -9.022,3.609 V 2.888 L -0.18,8.03 c 0,0.181 -0.091,0.451 -0.091,0.631 m -0.18,1.083 -8.571,-5.053 v -0.63 l 8.662,5.051 c 0,0.181 -0.091,0.451 -0.091,0.632 m -0.18,0.992 -8.391,-4.872 V 5.143 l 8.481,4.962 c 0,0.181 -0.09,0.452 -0.09,0.631 m -0.181,0.993 -8.21,-4.782 V 6.315 l 8.3,4.873 c 0,0.18 0,0.361 -0.09,0.541 m -0.27,0.993 -7.94,-4.602 V 7.398 l 8.12,4.783 c -0.09,0.18 -0.09,0.36 -0.18,0.541 M -1.353,13.714 -9.022,9.203 V 8.571 l 7.849,4.512 c -0.09,0.18 -0.09,0.451 -0.18,0.631 m -0.361,0.902 -7.308,-4.24 V 9.654 l 7.489,4.421 c -0.091,0.181 -0.091,0.362 -0.181,0.541 m -0.361,0.903 -6.947,-4.06 v -0.632 l 7.127,4.151 c -0.089,0.18 -0.089,0.36 -0.18,0.541 m -0.361,0.902 -6.586,-3.789 V 11.91 l 6.767,3.97 c -0.091,0.181 -0.091,0.36 -0.181,0.541 m -0.451,0.902 -6.135,-3.609 v -0.631 l 6.406,3.699 z m -0.451,0.903 -5.684,-3.339 v -0.722 l 5.955,3.52 z m -0.451,0.811 -5.233,-3.067 v -0.632 l 5.503,3.248 c -0.089,0.181 -0.18,0.271 -0.27,0.451 M -4.24,19.85 -9.022,17.143 v -0.722 l 5.052,2.977 c -0.09,0.181 -0.18,0.271 -0.27,0.452 m -0.541,0.902 -4.241,-2.526 v -0.632 l 4.511,2.616 z m -0.632,0.722 -3.609,-2.076 v -0.721 l 3.97,2.345 c -0.091,0.181 -0.271,0.271 -0.361,0.452 m -0.541,0.811 -3.068,-1.804 V 19.85 l 3.428,1.985 c -0.09,0.18 -0.27,0.27 -0.36,0.45 m -0.632,0.813 -2.436,-1.444 v -0.721 l 2.796,1.713 c -0.089,0.181 -0.27,0.271 -0.36,0.452 m -2.436,0.541 v -0.452 l 0.542,0.452 z m 1.985,0 h -0.632 l -1.353,-0.903 v -0.631 l 2.166,1.263 c -0.091,0.091 -0.091,0.181 -0.181,0.271 m -1.624,1.624 -0.361,-0.271 V 24.36 l 0.812,0.452 z m -0.361,0.361 v -0.181 l 0.09,0.091 z M 0,33.022 H -9.022 V 26.256 C -8.21,25.534 -7.578,24.812 -6.856,24 H 0 Z M -9.563,0.992 c -0.09,-0.18 0,-0.451 -0.09,-0.631 l 0.09,0.09 z m 0,8.482 v 0.631 l -0.09,-0.09 c 0.09,-0.18 0.09,-0.361 0.09,-0.541 m 0,1.083 v 0.631 l -0.452,-0.271 c 0.09,-0.181 0.09,-0.36 0.181,-0.541 z m 0,-10.647 -0.271,-0.181 -0.27,-0.812 0.541,0.361 z m 0,11.819 v 0.632 l -0.722,-0.451 c 0.09,-0.181 0.09,-0.361 0.181,-0.542 z m 0,-12.902 -0.722,-0.451 c -0.091,-0.271 -0.271,-0.632 -0.361,-0.902 l 1.083,0.721 z m 0,13.985 v 0.631 l -1.083,-0.631 c 0.09,-0.18 0.09,-0.361 0.18,-0.541 z m 0,11.278 v 0.632 L -10.736,24 h 1.173 z m 0,-36.541 -1.535,-0.903 h 1.083 l 0.452,0.271 z m 0,26.436 v 0.631 l -1.535,-0.902 0.272,-0.541 z m 0,-16.331 -1.354,-0.812 c -0.181,-0.361 -0.36,-0.631 -0.541,-0.903 l 1.895,1.083 z m 0,17.413 v 0.632 l -1.986,-1.173 c 0.091,-0.18 0.181,-0.27 0.272,-0.451 z m 0,1.173 v 0.632 l -2.527,-1.443 c 0.09,-0.181 0.271,-0.362 0.361,-0.542 z m 0,-19.669 -2.256,-1.353 C -12,-5.143 -12.271,-5.504 -12.541,-5.864 l 2.978,1.803 z m 0,20.752 v 0.632 l -3.068,-1.715 c 0.09,-0.179 0.271,-0.36 0.36,-0.541 z m 0,7.94 v 0.632 L -12.722,24 h 1.173 z m 0,-36.631 -3.519,-1.986 h 1.173 L -9.563,-12 Z m 0,29.864 v 0.632 l -3.61,-2.166 c 0.091,-0.18 0.272,-0.271 0.361,-0.451 z m 0,1.083 v 0.631 l -4.241,-2.436 c 0.09,-0.18 0.271,-0.27 0.361,-0.451 z m 0,-24.181 -3.61,-2.075 -1.082,-1.353 4.692,2.797 z m 0,25.354 v 0.632 l -4.962,-2.888 c 0.179,-0.181 0.36,-0.27 0.45,-0.451 z m -0.181,5.504 c -0.181,0.09 -0.271,0.27 -0.451,0.36 L -14.616,24 h 1.083 z m 0.181,-36.451 -5.504,-3.159 h 1.172 l 4.332,2.527 z m 0,32.03 v 0.631 l -5.685,-3.248 c 0.181,-0.09 0.271,-0.271 0.451,-0.451 z m 0,1.173 v 0.631 L -16.06,19.85 c 0.181,-0.09 0.271,-0.271 0.452,-0.362 z m -0.903,3.879 c -0.18,0.091 -0.36,0.271 -0.541,0.361 L -16.601,24 h 1.173 z m -1.083,-3.248 -5.323,-3.158 c 0.181,-0.09 0.271,-0.271 0.451,-0.361 l 6.045,3.519 z m 1.986,-32.751 -7.399,-4.242 h 1.083 l 6.316,3.61 z m -3.88,32.751 -4.331,-2.527 c 0.18,-0.09 0.361,-0.27 0.542,-0.36 l 4.872,2.887 z m 2.075,3.88 c -0.181,0.09 -0.271,0.27 -0.451,0.361 L -18.496,24 h 1.083 z m -4.06,-3.88 -3.248,-1.985 0.541,-0.27 3.88,2.255 z m 5.865,-31.578 -9.384,-5.415 h 1.173 l 8.211,4.783 z m -3.97,-10.828 c 1.443,0.903 2.707,1.805 3.97,2.887 l -9.655,-5.594 c 1.624,0.541 3.248,1.264 4.693,2.076 z m -3.79,42.406 c -0.812,-0.452 -1.624,-0.993 -2.436,-1.444 0.181,-0.09 0.451,-0.18 0.632,-0.27 l 2.887,1.714 z m 5.143,4.511 c -0.18,0.09 -0.361,0.271 -0.542,0.361 L -20.48,24 h 1.172 z m 2.617,-35.007 -11.279,-6.497 h 1.083 l 10.196,5.866 z m -9.745,30.496 c -0.542,-0.271 -0.992,-0.631 -1.534,-0.903 0.181,-0.09 0.451,-0.179 0.632,-0.27 l 2.075,1.173 z m -1.985,0 -0.722,-0.452 c 0.271,-0.089 0.452,-0.179 0.722,-0.27 0.361,0.27 0.813,0.451 1.173,0.722 z m 8.211,5.143 c -0.181,0.09 -0.451,0.271 -0.632,0.361 L -22.466,24 h 1.173 z m 3.519,-44.12 v 0.631 l -13.173,-7.669 c 0.632,0.091 1.262,0.271 1.894,0.451 z m 0,9.653 -5.956,-3.518 c -1.804,-1.624 -3.969,-2.797 -6.315,-3.609 l -0.992,-0.542 h 1.173 l 12.09,7.039 z m 0,-10.826 c -3.79,-3.249 -8.301,-5.504 -13.354,-6.406 h 13.354 z m -13.354,49.533 c 5.053,-0.902 9.564,-3.067 13.354,-6.315 v 6.315 z m -0.27,-9.383 -0.181,-0.09 0.812,-0.271 0.452,0.361 z m 9.112,5.684 c -0.18,0.09 -0.361,0.271 -0.541,0.362 L -24.36,24 h 1.083 z m 4.512,-43.579 v 0.361 h -0.362 l -15.428,-8.841 c 0.452,0.09 0.993,0.09 1.444,0.179 z m -5.504,44.12 c -0.181,0.091 -0.452,0.271 -0.632,0.362 L -26.346,24 h 1.173 z m 4.331,-43.759 h -1.173 l -15.61,-8.932 h 1.264 z m -5.414,44.301 c -0.18,0.09 -0.451,0.18 -0.631,0.271 L -28.149,24.09 h 0.179 0.903 z m 3.428,-44.301 h -1.173 l -15.518,-8.932 h 1.083 z m -4.51,44.842 c -0.181,0.09 -0.452,0.181 -0.632,0.271 L -30.225,24 h 0.993 c 0.089,0 0.089,0.09 0.18,0.09 z m 2.526,-44.842 h -1.083 l -15.338,-8.841 c 0.36,0 0.631,-0.091 0.992,-0.091 z m -3.699,45.293 c -0.271,0.09 -0.451,0.09 -0.722,0.181 L -32.12,24 h 1.083 z m 1.804,-45.293 h -1.173 l -14.887,-8.571 c 0.27,-0.091 0.632,-0.18 0.902,-0.18 z m -16.511,-9.022 c -0.09,0 -0.09,0.09 -0.181,0.09 v -0.09 z m 14.526,9.022 h -1.083 l -14.435,-8.3 c 0.27,-0.09 0.541,-0.09 0.811,-0.181 z M -19.578,31.759 -20.391,32.03 -34.104,24 h 1.172 z m -13.534,1.263 h -0.992 l -0.632,-0.27 z m -0.722,-55.758 c -0.27,0.09 -0.632,0.09 -0.902,0.179 l -0.541,-0.36 h 1.173 z m 13.354,8.841 h -1.173 l -13.805,-7.94 c 0.27,-0.09 0.451,-0.18 0.722,-0.27 z M -20.932,32.12 -21.744,32.391 -36.09,24 h 1.173 z m -1.534,-46.015 h -1.173 l -13.083,-7.579 c 0.272,-0.089 0.451,-0.18 0.723,-0.27 z m -12.811,-8.481 c -0.272,0.091 -0.452,0.091 -0.722,0.181 l -0.993,-0.541 v -0.181 h 0.902 z m -1.715,0.541 v -0.45 l 0.451,0.27 c -0.181,0.09 -0.271,0.09 -0.451,0.18 m 0.902,7.94 h -0.902 v -0.542 z m 1.986,0 h -1.173 l -1.715,-0.992 v -0.632 z m 1.894,0 h -1.083 l -3.699,-2.075 v -0.721 z m 1.985,0 h -1.173 l -5.594,-3.248 v -0.631 z m 1.895,0 h -1.083 l -7.579,-4.331 v -0.721 z m 1.984,0 h -1.173 l -9.473,-5.503 v -0.632 z m 1.896,0 h -1.083 l -11.459,-6.586 v -0.722 z m -7.67,0.541 c -1.714,0.362 -3.338,0.993 -4.872,1.805 v -0.992 -0.091 -0.631 -0.091 z m -4.872,35.098 c 1.443,0.813 2.977,1.534 4.692,1.895 h -4.692 z m 9.022,-35.098 c 10.196,0 18.407,8.301 18.407,18.497 0,9.744 -7.489,17.865 -17.053,18.496 h -2.616 c -2.797,-0.18 -5.414,-0.993 -7.76,-2.346 V 14.887 14.437 13.805 13.354 12.632 12.181 11.549 11.098 10.376 9.925 9.293 8.842 7.669 7.037 6.587 5.413 4.782 4.331 3.158 2.526 2.075 0.902 0.271 v -0.452 -1.173 -0.631 -0.452 -1.082 -0.09 -0.631 -0.451 -1.083 -0.09 -0.632 -0.451 -1.083 -0.09 -0.632 -0.451 -1.083 -0.722 c 2.707,-1.533 5.774,-2.346 9.022,-2.346 m -8.301,45.204 -0.721,-0.452 v -0.721 l 2.888,1.714 z m 13.986,0.631 c -0.271,0.09 -0.632,0.09 -0.902,0.18 L -36.992,24.632 V 24 h 0.091 z m -10.647,0.18 -4.06,-2.435 v -0.632 l 5.594,3.248 c -0.541,-0.09 -0.993,-0.09 -1.534,-0.181 m 8.21,0.181 -12.27,-7.128 v -0.631 l 13.173,7.669 c -0.271,0.09 -0.631,0.09 -0.903,0.09 m -12.179,0.18 h -0.091 v -0.089 z m 1.984,0 h -1.173 l -0.902,-0.541 V 32.03 l 0.812,0.271 z m 4.512,-0.089 -6.587,-3.79 v -0.722 l 7.849,4.601 c -0.451,0 -0.811,-0.089 -1.262,-0.089 m 2.435,0.089 h -0.27 l -8.752,-5.052 v -0.632 l 9.835,5.684 z m 1.534,0 -10.556,-6.135 v -0.722 l 11.639,6.768 c -0.361,0 -0.721,0.089 -1.083,0.089 m -11.097,-43.758 v 0.09 h -0.09 z m 0,-10.467 v 0.451 l -0.451,-0.27 c 0.18,-0.09 0.27,-0.09 0.451,-0.181 m 0,45.203 v 0.36 L -37.984,24 Z m -0.903,-37.354 h 0.903 v 0.452 z m 0.903,3.249 v 0.631 l -0.992,-0.631 c 0.179,-0.09 0.36,-0.271 0.541,-0.361 z m 0,-11.82 -1.624,-0.992 h 1.083 l 0.541,0.36 z m 0,1.624 v 0.632 l -1.624,-0.902 c 0.18,-0.09 0.541,-0.181 0.721,-0.271 z m 0,11.279 v 0.631 l -1.805,-1.083 c 0.181,-0.089 0.271,-0.27 0.451,-0.361 z m 0,40.961 v 0.271 l -1.805,-0.992 c 0.632,0.27 1.173,0.541 1.805,0.721 m 0,-7.127 v 0.631 L -39.97,24 h 1.173 z m 0,-32.662 v 0.632 l -2.616,-1.534 c 0.179,-0.09 0.27,-0.36 0.451,-0.451 z m 0,-11.278 v 0.632 l -2.707,-1.624 c 0.18,-0.09 0.451,-0.181 0.632,-0.271 z m 0,7.399 -2.797,-1.625 h 1.082 l 1.715,0.993 z m 0,4.962 v 0.631 l -3.429,-1.984 c 0.181,-0.181 0.271,-0.271 0.451,-0.361 z m 0,27.068 v 0.632 l -0.541,-0.362 c -0.993,-0.721 -1.986,-1.353 -2.888,-2.256 z m -0.903,-41.594 -2.707,-1.624 h 1.173 l 2.166,1.354 c -0.27,0.089 -0.361,0.179 -0.632,0.27 m 0.903,3.248 v 0.632 l -3.699,-2.166 c 0.18,-0.09 0.451,-0.181 0.631,-0.271 z m 0,12.451 v 0.632 l -4.061,-2.436 c 0.091,-0.181 0.181,-0.181 0.362,-0.362 z m 0,31.579 v 0.631 L -41.864,24 h 1.083 z m 0,-42.857 v 0.632 l -4.692,-2.797 0.541,-0.272 z m 0,12.36 v 0.632 l -4.692,-2.707 c 0.09,-0.18 0.271,-0.27 0.361,-0.45 z m -0.541,-6.405 -4.241,-2.437 h 1.172 l 3.61,2.076 c -0.181,0.09 -0.362,0.27 -0.541,0.361 m 0.541,7.579 v 0.631 l -5.323,-3.157 c 0.089,-0.181 0.27,-0.272 0.36,-0.451 z m 0,22.556 v 0.632 l -4.421,-2.617 c -0.361,-0.361 -0.722,-0.722 -0.993,-1.172 z m -2.075,-40.06 -3.429,-2.075 h 1.083 l 2.977,1.805 c -0.18,0.09 -0.451,0.179 -0.631,0.27 m 2.075,5.053 v 0.631 l -5.594,-3.248 c 0.18,-0.09 0.36,-0.271 0.541,-0.361 z m 0,13.533 v 0.632 l -5.864,-3.429 c 0.089,-0.18 0.179,-0.27 0.27,-0.451 z m 0,29.323 v 0.632 L -43.849,24 h 1.173 z m 0,-28.15 v 0.632 l -6.406,-3.789 c 0.09,-0.181 0.18,-0.272 0.27,-0.451 z m 0,-13.533 v 0.631 l -6.496,-3.789 c 0.18,-0.09 0.27,-0.271 0.451,-0.362 z m 0,32.661 v 0.632 l -5.955,-3.429 c -0.181,-0.361 -0.361,-0.632 -0.541,-0.992 z m -1.444,-28.421 -5.233,-2.978 h 1.083 l 4.691,2.708 z M -37.533,0 v 0.632 l -6.858,-3.97 0.271,-0.542 z m 0,1.173 v 0.632 l -7.309,-4.242 0.271,-0.541 z m 0,15.789 v 0.632 l -6.858,-4.06 c -0.18,-0.271 -0.27,-0.632 -0.451,-0.902 z m -1.624,-30.857 -5.775,-3.248 c 0.181,-0.09 0.361,-0.27 0.541,-0.361 l 6.317,3.609 z m -1.534,-6.496 -4.331,-2.526 h 1.173 l 3.789,2.256 c -0.18,0.09 -0.451,0.18 -0.631,0.27 m 3.158,22.647 v 0.632 l -7.669,-4.422 c 0.09,-0.18 0.09,-0.361 0.18,-0.541 z m -7.85,24.722 7.128,4.15 c -2.617,-0.993 -4.963,-2.437 -7.128,-4.15 m 7.85,-11.189 v 0.632 L -45.112,12 c -0.09,-0.271 -0.271,-0.541 -0.361,-0.812 z m 0,-12.36 v 0.632 l -8.03,-4.693 c 0.09,-0.18 0.09,-0.36 0.18,-0.541 z m -3.61,-17.324 -4.601,-2.616 c 0.181,-0.091 0.271,-0.271 0.451,-0.361 l 5.323,2.977 z m 3.61,18.407 v 0.631 l -8.301,-4.782 c 0.09,-0.18 0.09,-0.451 0.181,-0.632 z m 0,10.195 v 0.631 l -8.12,-4.692 c -0.091,-0.27 -0.091,-0.541 -0.181,-0.811 z m 0,13.533 v 0.632 L -45.834,24 h 1.173 z m 0,-22.555 v 0.63 l -8.571,-4.961 c 0,-0.181 0.089,-0.452 0.18,-0.632 z m -2.256,-15.339 -6.406,-3.7 h 1.173 l 5.684,3.249 c -0.181,0.09 -0.27,0.361 -0.451,0.451 m 2.256,23.188 v 0.631 l -8.482,-4.872 c -0.089,-0.271 -0.089,-0.541 -0.18,-0.812 z m 0,-6.767 v 0.631 l -8.752,-5.052 c 0,-0.181 0.09,-0.451 0.09,-0.632 z m 0,1.172 v 0.632 l -8.842,-5.142 c 0,-0.181 0.09,-0.451 0.09,-0.632 z m 0,4.512 v 0.632 L -46.285,8.03 c 0,-0.27 -0.09,-0.451 -0.09,-0.721 z m 0,-3.429 V 9.654 L -46.466,4.512 V 3.88 Z m 0,1.173 v 0.632 L -46.466,5.594 V 5.143 4.962 Z m 0,1.083 v 0.632 l -8.842,-5.143 c 0,-0.271 -0.091,-0.361 -0.091,-0.631 z m -4.151,-31.128 -4.872,-2.796 v -0.271 h 0.722 l 4.691,2.797 z m -0.992,0.632 -3.88,-2.256 v -0.631 l 4.421,2.526 c -0.18,0.091 -0.361,0.27 -0.541,0.361 m -0.902,0.541 -2.978,-1.714 v -0.631 l 3.519,1.985 c -0.181,0.09 -0.36,0.27 -0.541,0.36 m -0.902,0.632 -2.076,-1.173 v -0.632 l 2.617,1.444 c -0.181,0.091 -0.361,0.27 -0.541,0.361 m -0.903,0.632 -1.173,-0.723 v -0.631 l 1.714,0.993 c -0.18,0.089 -0.36,0.27 -0.541,0.361 m -0.812,0.631 -0.361,-0.18 v -0.632 l 0.903,0.451 c -0.181,0.09 -0.362,0.271 -0.542,0.361 m -0.361,2.887 v -0.361 l 0.722,0.361 z m 1.534,0 -1.534,-0.812 v -0.631 l 2.707,1.443 z m 1.985,0 -3.519,-1.985 c 0.181,-0.09 0.271,-0.27 0.452,-0.36 l 4.15,2.345 z m 2.436,4.873 -5.955,-3.429 v -0.632 l 6.407,3.699 c -0.181,0.091 -0.272,0.272 -0.452,0.362 m -0.721,0.721 -5.234,-3.067 V -12 l 5.684,3.248 c -0.18,0.091 -0.271,0.271 -0.45,0.451 m -0.723,0.722 -4.511,-2.616 v -0.632 l 4.962,2.797 c -0.09,0.18 -0.36,0.27 -0.451,0.451 m -0.631,0.722 -3.88,-2.255 v -0.632 l 4.241,2.435 c -0.09,0.181 -0.271,0.272 -0.361,0.452 m -0.632,0.812 -3.248,-1.894 v -0.632 l 3.609,2.075 c -0.09,0.181 -0.271,0.27 -0.361,0.451 m -0.541,0.812 -2.707,-1.624 v -0.631 l 3.068,1.714 c -0.09,0.18 -0.271,0.361 -0.361,0.541 m -0.451,0.812 -2.256,-1.264 v -0.63 l 2.527,1.353 z m -0.542,0.812 -1.714,-0.993 v -0.631 l 1.985,1.172 c -0.09,0.181 -0.18,0.272 -0.271,0.452 m -0.36,0.902 -1.354,-0.722 v -0.632 l 1.534,0.813 c -0.09,0.181 -0.09,0.36 -0.18,0.541 m -0.451,0.902 -0.903,-0.541 v -0.632 l 1.173,0.632 z m -0.271,0.903 -0.632,-0.271 v -0.632 l 0.812,0.362 c -0.09,0.18 -0.09,0.36 -0.18,0.541 m -0.361,0.992 -0.271,-0.18 v -0.632 l 0.452,0.271 c -0.091,0.18 -0.091,0.361 -0.181,0.541 m -0.181,0.993 h -0.09 V 0.451 l 0.181,0.09 c -0.091,0.181 -0.091,0.361 -0.091,0.542 m 0.091,8.391 c 0.09,0.27 0.09,0.541 0.18,0.812 l -0.361,-0.181 V 9.474 Z m 0.36,1.353 0.271,0.812 -0.812,-0.451 v -0.631 z m 0.452,1.444 c 0.09,0.27 0.27,0.631 0.451,0.902 l -1.444,-0.812 v -0.632 z m 0.721,1.534 c 0.181,0.36 0.362,0.632 0.542,0.992 l -2.256,-1.354 v -0.631 z m 0.993,1.714 0.812,1.083 -3.519,-1.986 v -0.631 z m 1.534,1.985 c 0.451,0.541 0.902,1.082 1.443,1.533 l -5.684,-3.338 v -0.632 z m 3.428,3.157 1.354,0.813 v 0.631 l -9.023,-5.233 V 16.24 Z m 1.354,1.896 v 0.63 l -9.023,-5.232 v -0.632 z m -7.94,1.082 h -1.083 v -0.631 z m 1.985,0 h -1.173 l -1.895,-1.173 v -0.631 z m 1.985,0 h -1.173 l -3.88,-2.255 v -0.632 z m 1.895,0 h -1.083 l -5.865,-3.429 v -0.631 z m 1.985,0 h -1.174 l -7.759,-4.511 v -0.632 z m -8.933,3.068 c 0.541,0.451 1.083,0.812 1.624,1.173 l -1.624,-0.902 z m 9.023,3.248 -9.023,-5.233 V 24.09 l 9.023,5.233 z m 0,1.173 -9.023,-5.233 v -0.632 l 9.023,5.233 z m -7.128,1.894 h -1.173 l -0.722,-0.361 V 32.03 Z m 1.985,0 h -1.173 l -2.707,-1.534 v -0.631 z m 1.895,0 h -1.083 l -4.692,-2.616 v -0.632 z m 1.984,0 h -1.173 l -6.586,-3.789 v -0.631 z m 1.264,-0.27 v 0.27 h -0.451 l -8.572,-4.872 v -0.631 z m -11.008,-46.647 1.534,-1.534 v 1.534 z m 1.534,39.519 C -47.548,25.083 -47.999,24.541 -48.541,24 h 1.534 z m -1.985,-1.985 c -4.33,-4.962 -6.947,-11.458 -6.947,-18.586 0,-7.128 2.617,-13.444 6.947,-18.407 h 1.985 V 23.639 Z M 0.812,33.022 H 0.361 V 24 H 0.812 V 23.639 H 0.361 V 5.053 -13.354 h 0.541 v -0.541 H 0.361 v -9.022 h 0.541 v -0.361 H 0.361 V -36.722 H 0 v 13.444 h -9.022 v -13.444 h -0.541 v 13.444 h -18.407 -9.022 v -13.444 h -0.541 v 13.444 h -9.023 v -13.444 h -0.451 v 13.444 h -5.864 v 0.361 h 5.864 v 6.856 c -0.812,0.723 -1.443,1.354 -2.165,2.166 h -3.699 v 0.541 h 3.248 c -4.241,4.963 -6.857,11.369 -6.857,18.407 0,7.037 2.616,13.624 6.857,18.586 h -4.241 V 24 h 4.692 c 0.722,0.812 1.353,1.534 2.165,2.256 v 6.766 h -6.857 v 0.541 h 6.857 v 12.362 h 0.451 V 33.563 h 9.023 v 12.362 h 0.541 V 33.563 h 9.022 18.407 v 12.362 h 0.541 V 33.563 H 0 V 45.925 H 0.361 V 33.563 h 0.451 z" /></g></g></g></g></svg>