<?xml version="1.0" encoding="UTF-8" standalone="no"?>
<!-- Created with Inkscape (http://www.inkscape.org/) -->

<svg
   xmlns:dc="http://purl.org/dc/elements/1.1/"
   xmlns:cc="http://creativecommons.org/ns#"
   xmlns:rdf="http://www.w3.org/1999/02/22-rdf-syntax-ns#"
   xmlns:svg="http://www.w3.org/2000/svg"
   xmlns="http://www.w3.org/2000/svg"
   xmlns:sodipodi="http://sodipodi.sourceforge.net/DTD/sodipodi-0.dtd"
   xmlns:inkscape="http://www.inkscape.org/namespaces/inkscape"
   width="16"
   height="16"
   viewBox="0 0 4.2333333 4.2333334"
   version="1.1"
   id="svg8"
   inkscape:version="0.92.1 r15371"
   sodipodi:docname="small_site_ultility.svg"
   inkscape:export-filename="C:\Users\Trey\Documents\GitHub\RockvaleRoboticsWebsite\docs\imgs\small_site_ultility_16.png"
   inkscape:export-xdpi="96"
   inkscape:export-ydpi="96">
  <defs
     id="defs2" />
  <sodipodi:namedview
     id="base"
     pagecolor="#ffffff"
     bordercolor="#666666"
     borderopacity="1.0"
     inkscape:pageopacity="0.0"
     inkscape:pageshadow="2"
     inkscape:zoom="9.9505995"
     inkscape:cx="13.014736"
     inkscape:cy="6.6386024"
     inkscape:document-units="px"
     inkscape:current-layer="layer1"
     showgrid="true"
     units="px"
     width="16in"
     inkscape:window-width="1366"
     inkscape:window-height="705"
     inkscape:window-x="-8"
     inkscape:window-y="-8"
     inkscape:window-maximized="1">
    <inkscape:grid
       type="xygrid"
       id="grid9096" />
  </sodipodi:namedview>
  <metadata
     id="metadata5">
    <rdf:RDF>
      <cc:Work
         rdf:about="">
        <dc:format>image/svg+xml</dc:format>
        <dc:type
           rdf:resource="http://purl.org/dc/dcmitype/StillImage" />
        <dc:title></dc:title>
      </cc:Work>
    </rdf:RDF>
  </metadata>
  <g
     inkscape:label="Layer 1"
     inkscape:groupmode="layer"
     id="layer1"
     transform="translate(0,-292.76666)">
    <g
       id="g9319">
      <path
         id="rect9109"
         transform="matrix(0.26458333,0,0,0.26458333,0,292.76666)"
         d="M 5 0 L 5 1 L 3 1 L 3 2 L 2 2 L 2 3 L 1 3 L 1 5 L 0 5 L 0 11 L 1 11 L 1 13 L 2 13 L 2 14 L 3 14 L 3 15 L 5 15 L 5 16 L 11 16 L 11 15 L 13 15 L 13 14 L 14 14 L 14 13 L 15 13 L 15 11 L 16 11 L 16 5 L 15 5 L 15 3 L 14 3 L 14 2 L 13 2 L 13 1 L 11 1 L 11 0 L 5 0 z "
         style="color:#000000;clip-rule:nonzero;display:inline;overflow:visible;visibility:visible;opacity:1;isolation:auto;mix-blend-mode:normal;color-interpolation:sRGB;color-interpolation-filters:linearRGB;solid-color:#000000;solid-opacity:1;fill:#0026ff;fill-opacity:1;fill-rule:nonzero;stroke:none;stroke-width:4.23580551;stroke-linecap:butt;stroke-linejoin:miter;stroke-miterlimit:4;stroke-dasharray:none;stroke-dashoffset:0;stroke-opacity:1;color-rendering:auto;image-rendering:optimizeQuality;shape-rendering:auto;text-rendering:auto;enable-background:accumulate" />
      <path
         id="rect9125-4"
         transform="matrix(0.26458333,0,0,0.26458333,0,292.76666)"
         d="M 3 1 L 3 2 L 2 2 L 2 3 L 1 3 L 1 4 L 2 4 L 2 5 L 2 6 L 3 6 L 3 7 L 3 8 L 4 8 L 4 7 L 6 7 L 6 6 L 5 6 L 5 5 L 6 5 L 6 4 L 7 4 L 7 3 L 5 3 L 5 2 L 4 2 L 4 1 L 3 1 z M 6 7 L 6 8 L 7 8 L 7 7 L 6 7 z M 4 8 L 4 9 L 3 9 L 3 10 L 2 10 L 2 12 L 3 12 L 3 13 L 4 13 L 4 14 L 5 14 L 5 15 L 6 15 L 6 14 L 6 13 L 7 13 L 7 10 L 6 10 L 6 9 L 5 9 L 5 8 L 4 8 z M 6 15 L 6 16 L 7 16 L 7 15 L 6 15 z M 11 1 L 11 2 L 12 2 L 12 3 L 13 3 L 13 5 L 11 5 L 11 6 L 10 6 L 10 7 L 11 7 L 11 8 L 12 8 L 12 7 L 14 7 L 14 6 L 16 6 L 16 5 L 15 5 L 15 3 L 14 3 L 14 2 L 13 2 L 13 1 L 11 1 z M 12 3 L 11 3 L 11 4 L 12 4 L 12 3 z M 14 8 L 14 9 L 12 9 L 12 11 L 11 11 L 11 13 L 12 13 L 12 14 L 14 14 L 14 13 L 15 13 L 15 11 L 16 11 L 16 8 L 14 8 z "
         style="color:#000000;clip-rule:nonzero;display:inline;overflow:visible;visibility:visible;opacity:1;isolation:auto;mix-blend-mode:normal;color-interpolation:sRGB;color-interpolation-filters:linearRGB;solid-color:#000000;solid-opacity:1;fill:#007f0e;fill-opacity:1;fill-rule:nonzero;stroke:none;stroke-width:0.3529838;stroke-linecap:butt;stroke-linejoin:miter;stroke-miterlimit:4;stroke-dasharray:none;stroke-dashoffset:0;stroke-opacity:1;color-rendering:auto;image-rendering:optimizeQuality;shape-rendering:auto;text-rendering:auto;enable-background:accumulate" />
    </g>
    <g
       transform="matrix(0.5,0,0,0.5,1.7197917,148.50002)"
       id="g4547"
       style="stroke-width:19.75012207">
      <g
         id="g9471">
        <rect
           y="294.88333"
           x="2.9104164"
           height="2.1166384"
           width="1.0583335"
           id="rect4513"
           style="color:#000000;clip-rule:nonzero;display:inline;overflow:visible;visibility:visible;opacity:1;isolation:auto;mix-blend-mode:normal;color-interpolation:sRGB;color-interpolation-filters:linearRGB;solid-color:#000000;solid-opacity:1;fill:#ff0000;fill-opacity:1;fill-rule:nonzero;stroke:none;stroke-width:6.30221224;stroke-linecap:butt;stroke-linejoin:miter;stroke-miterlimit:4;stroke-dasharray:none;stroke-dashoffset:0;stroke-opacity:1;color-rendering:auto;image-rendering:optimizeQuality;shape-rendering:auto;text-rendering:auto;enable-background:accumulate" />
        <path
           inkscape:connector-curvature="0"
           id="path9463"
           d="m 1.8520833,293.82496 v 0.52917 H 1.3229165 v -0.52917 z"
           style="color:#000000;clip-rule:nonzero;display:inline;overflow:visible;visibility:visible;opacity:1;isolation:auto;mix-blend-mode:normal;color-interpolation:sRGB;color-interpolation-filters:linearRGB;solid-color:#000000;solid-opacity:1;fill:#a0a0a0;fill-opacity:1;fill-rule:nonzero;stroke:none;stroke-width:3.30493045;stroke-linecap:butt;stroke-linejoin:miter;stroke-miterlimit:4;stroke-dasharray:none;stroke-dashoffset:0;stroke-opacity:1;color-rendering:auto;image-rendering:optimizeQuality;shape-rendering:auto;text-rendering:auto;enable-background:accumulate" />
        <path
           inkscape:connector-curvature="0"
           id="path9461"
           d="m 2.38125,293.29579 v 0.52916 H 1.8520833 v -0.52916 z"
           style="color:#000000;clip-rule:nonzero;display:inline;overflow:visible;visibility:visible;opacity:1;isolation:auto;mix-blend-mode:normal;color-interpolation:sRGB;color-interpolation-filters:linearRGB;solid-color:#000000;solid-opacity:1;fill:#a0a0a0;fill-opacity:1;fill-rule:nonzero;stroke:none;stroke-width:3.30493045;stroke-linecap:butt;stroke-linejoin:miter;stroke-miterlimit:4;stroke-dasharray:none;stroke-dashoffset:0;stroke-opacity:1;color-rendering:auto;image-rendering:optimizeQuality;shape-rendering:auto;text-rendering:auto;enable-background:accumulate" />
        <path
           inkscape:connector-curvature="0"
           id="path9459"
           d="m 4.7624997,292.76662 v 0.52917 H 2.38125 v -0.52917 z"
           style="color:#000000;clip-rule:nonzero;display:inline;overflow:visible;visibility:visible;opacity:1;isolation:auto;mix-blend-mode:normal;color-interpolation:sRGB;color-interpolation-filters:linearRGB;solid-color:#000000;solid-opacity:1;fill:#a0a0a0;fill-opacity:1;fill-rule:nonzero;stroke:none;stroke-width:3.30493045;stroke-linecap:butt;stroke-linejoin:miter;stroke-miterlimit:4;stroke-dasharray:none;stroke-dashoffset:0;stroke-opacity:1;color-rendering:auto;image-rendering:optimizeQuality;shape-rendering:auto;text-rendering:auto;enable-background:accumulate" />
        <path
           inkscape:connector-curvature="0"
           id="rect4536"
           d="m 3.1749998,293.2958 h 0.5291667 v 1.58749 H 3.1749998 Z"
           style="color:#000000;clip-rule:nonzero;display:inline;overflow:visible;visibility:visible;opacity:1;isolation:auto;mix-blend-mode:normal;color-interpolation:sRGB;color-interpolation-filters:linearRGB;solid-color:#000000;solid-opacity:1;fill:#a0a0a0;fill-opacity:1;fill-rule:nonzero;stroke:none;stroke-width:3.30493045;stroke-linecap:butt;stroke-linejoin:miter;stroke-miterlimit:4;stroke-dasharray:none;stroke-dashoffset:0;stroke-opacity:1;color-rendering:auto;image-rendering:optimizeQuality;shape-rendering:auto;text-rendering:auto;enable-background:accumulate" />
        <rect
           transform="rotate(90)"
           y="-5.0270834"
           x="292.23746"
           height="0.52916664"
           width="1.5874989"
           id="rect4519"
           style="color:#000000;clip-rule:nonzero;display:inline;overflow:visible;visibility:visible;opacity:1;isolation:auto;mix-blend-mode:normal;color-interpolation:sRGB;color-interpolation-filters:linearRGB;solid-color:#000000;solid-opacity:1;fill:#404040;fill-opacity:1;fill-rule:nonzero;stroke:none;stroke-width:4.6738553;stroke-linecap:butt;stroke-linejoin:miter;stroke-miterlimit:4;stroke-dasharray:none;stroke-dashoffset:0;stroke-opacity:1;color-rendering:auto;image-rendering:optimizeQuality;shape-rendering:auto;text-rendering:auto;enable-background:accumulate" />
      </g>
    </g>
  </g>
</svg>
