<?xml version="1.0" encoding="UTF-8" standalone="no"?>
<svg
   xmlns:dc="http://purl.org/dc/elements/1.1/"
   xmlns:cc="http://creativecommons.org/ns#"
   xmlns:rdf="http://www.w3.org/1999/02/22-rdf-syntax-ns#"
   xmlns:svg="http://www.w3.org/2000/svg"
   xmlns="http://www.w3.org/2000/svg"
   id="svg8"
   version="1.1"
   viewBox="0 0 4.2333332 4.2333335"
   height="16"
   width="16">
  <defs
     id="defs2" />
  <metadata
     id="metadata5">
    <rdf:RDF>
      <cc:Work
         rdf:about="">
        <dc:format>image/svg+xml</dc:format>
        <dc:type
           rdf:resource="http://purl.org/dc/dcmitype/StillImage" />
        <dc:title></dc:title>
      </cc:Work>
    </rdf:RDF>
  </metadata>
  <g
     transform="translate(0,-292.76665)"
     id="layer1">
    <g
       id="g9174">
      <path
         style="color:#000000;clip-rule:nonzero;display:inline;overflow:visible;visibility:visible;opacity:1;isolation:auto;mix-blend-mode:normal;color-interpolation:sRGB;color-interpolation-filters:linearRGB;solid-color:#000000;solid-opacity:1;fill:none;fill-opacity:1;fill-rule:nonzero;stroke:#ffffff;stroke-width:0.26458332;stroke-linecap:butt;stroke-linejoin:miter;stroke-miterlimit:4;stroke-dasharray:none;stroke-dashoffset:0;stroke-opacity:1;color-rendering:auto;image-rendering:optimizeQuality;shape-rendering:auto;text-rendering:auto;enable-background:accumulate"
         d="M 0.13229166,292.89896 H 4.1010417 v 3.96874 H 0.13229166 Z"
         id="rect9102" />
      <path
         style="color:#000000;clip-rule:nonzero;display:inline;overflow:visible;visibility:visible;opacity:1;isolation:auto;mix-blend-mode:normal;color-interpolation:sRGB;color-interpolation-filters:linearRGB;solid-color:#000000;solid-opacity:1;fill:#ffffff;fill-opacity:1;fill-rule:nonzero;stroke:none;stroke-width:0.99999994;stroke-linecap:butt;stroke-linejoin:miter;stroke-miterlimit:4;stroke-dasharray:none;stroke-dashoffset:0;stroke-opacity:1;color-rendering:auto;image-rendering:optimizeQuality;shape-rendering:auto;text-rendering:auto;enable-background:accumulate"
         d="M 6 5 L 6 6 L 5 6 L 5 7 L 4 7 L 4 8 L 4 9 L 3 9 L 3 10 L 3 11 L 2 11 L 2 12 L 2 13 L 1 13 L 1 14 L 1 15 L 15 15 L 15 14 L 15 13 L 16 13 L 16 12 L 16 11 L 14 11 L 14 10 L 14 9 L 13 9 L 13 8 L 10 8 L 10 7 L 9 7 L 9 6 L 8 6 L 8 5 L 6 5 z "
         transform="matrix(0.26458333,0,0,0.26458333,0,292.76665)"
         id="rect9106" />
      <path
         style="color:#000000;clip-rule:nonzero;display:inline;overflow:visible;visibility:visible;opacity:1;isolation:auto;mix-blend-mode:normal;color-interpolation:sRGB;color-interpolation-filters:linearRGB;solid-color:#000000;solid-opacity:1;fill:#ffffff;fill-opacity:1;fill-rule:nonzero;stroke:none;stroke-width:0.99999994;stroke-linecap:butt;stroke-linejoin:miter;stroke-miterlimit:4;stroke-dasharray:none;stroke-dashoffset:0;stroke-opacity:1;color-rendering:auto;image-rendering:optimizeQuality;shape-rendering:auto;text-rendering:auto;enable-background:accumulate"
         d="M 11 2 L 11 3 L 10 3 L 10 5 L 11 5 L 11 6 L 13 6 L 13 5 L 14 5 L 14 3 L 13 3 L 13 2 L 11 2 z "
         transform="matrix(0.26458333,0,0,0.26458333,0,292.76665)"
         id="rect9126" />
    </g>
  </g>
</svg>
